<svg id="Layer_1" data-name="Layer 1" xmlns="http://www.w3.org/2000/svg" xmlns:xlink="http://www.w3.org/1999/xlink" viewBox="0 0 548.29 525.32"><defs><linearGradient id="linear-gradient" x1="244.04" y1="176.54" x2="271.98" y2="211.13" gradientUnits="userSpaceOnUse"><stop offset="0" stop-color="#010101" stop-opacity="0"/><stop offset="0.95" stop-color="#010101"/></linearGradient><linearGradient id="linear-gradient-2" x1="298.94" y1="235.74" x2="309.95" y2="235.74" gradientUnits="userSpaceOnUse"><stop offset="0" stop-color="#e4c5d5"/><stop offset="0.42" stop-color="#e9d3cf"/><stop offset="1" stop-color="#efe8ca"/></linearGradient><linearGradient id="linear-gradient-4" x1="265.52" y1="169.3" x2="260.07" y2="160.67" xlink:href="#linear-gradient"/><linearGradient id="linear-gradient-5" x1="224.91" y1="209.57" x2="282.23" y2="287.25" xlink:href="#linear-gradient"/><linearGradient id="linear-gradient-6" x1="297.25" y1="222.43" x2="243.71" y2="177.94" xlink:href="#linear-gradient"/><linearGradient id="linear-gradient-7" x1="275.42" y1="219.89" x2="315.14" y2="189.73" xlink:href="#linear-gradient"/><linearGradient id="linear-gradient-8" x1="314.65" y1="136.58" x2="345.17" y2="136.58" xlink:href="#linear-gradient-2"/><linearGradient id="linear-gradient-9" x1="323.5" y1="235.79" x2="453.57" y2="134.84" xlink:href="#linear-gradient"/><linearGradient id="linear-gradient-10" x1="333.84" y1="143.86" x2="347.79" y2="186.47" xlink:href="#linear-gradient"/><linearGradient id="linear-gradient-11" x1="308.02" y1="187.52" x2="347.23" y2="192.8" xlink:href="#linear-gradient"/><linearGradient id="linear-gradient-12" x1="286.22" y1="200.12" x2="363.73" y2="200.12" xlink:href="#linear-gradient-2"/><linearGradient id="linear-gradient-13" x1="239.69" y1="164.48" x2="271.54" y2="165.49" xlink:href="#linear-gradient"/><linearGradient id="linear-gradient-14" x1="292.63" y1="91.68" x2="298.66" y2="13.25" gradientUnits="userSpaceOnUse"><stop offset="0" stop-color="#fff" stop-opacity="0"/><stop offset="0.95" stop-color="#fff"/></linearGradient><linearGradient id="linear-gradient-15" x1="226.79" y1="164.46" x2="273.06" y2="164.46" xlink:href="#linear-gradient"/><linearGradient id="linear-gradient-16" x1="251.53" y1="191.04" x2="258.44" y2="190.85" xlink:href="#linear-gradient"/><linearGradient id="linear-gradient-17" x1="348.04" y1="176.43" x2="412.06" y2="195.87" xlink:href="#linear-gradient"/><linearGradient id="linear-gradient-18" x1="295.56" y1="359.85" x2="443.35" y2="210.05" xlink:href="#linear-gradient"/><linearGradient id="linear-gradient-19" x1="346.77" y1="331.61" x2="363.4" y2="331.61" xlink:href="#linear-gradient"/><linearGradient id="linear-gradient-20" x1="236.13" y1="200.41" x2="246.36" y2="188.26" xlink:href="#linear-gradient"/><linearGradient id="linear-gradient-21" x1="249.31" y1="218.8" x2="279.48" y2="268.57" xlink:href="#linear-gradient"/><linearGradient id="linear-gradient-22" x1="291" y1="208.55" x2="184.92" y2="221.28" gradientTransform="translate(8.31 -7.69) rotate(4.66)" xlink:href="#linear-gradient"/><clipPath id="clip-path" transform="translate(-43.04 30.67)"><path d="M469.11,82.08C454.69,55.6,436.71,27.41,407.76,19c-9.64-2.8-19.78-3.12-29.81-3.43L208.43,10.36c-12.48-.39-25.27-.73-37.1,3.25-14.88,5-26.75,16.36-36.7,28.51-34.11,41.63-50.7,94.51-66.53,146-12.49,40.57-25.13,82.81-19,124.81a143.92,143.92,0,0,0,17.43,50.4c3.51,6.13,7.6,12.12,13.29,16.31,5.13,3.78,11.31,5.89,17.51,7.35,32.71,7.68,66.9-1.35,100.47,0,9.23.36,18.54,1.51,27.66.08s18.35-6,22.7-14.11,1.84-20.08-6.65-23.73c-6.59,10.17-15,21.45-27.13,21.95-10.4.42-19.54-7.94-23.39-17.62s-3.57-20.42-3.2-30.83c2.36-65.62,6-131.22,12.06-196.6,1-10.94,2.16-22,6.25-32.23,4.64-11.53,12.81-21.25,21.22-30.41,9.36-10.2,19.38-20.13,31.58-26.7,21.44-11.56,48.44-11.31,70.42-.78s38.75,30.71,46.7,53.74c5.12,14.86,6.74,30.67,7.91,46.34,5.36,72,1.94,144.27.09,216.42-.16,6.18-.2,12.77,3.06,18,2.65,4.28,7.12,7,11.54,9.46a170,170,0,0,0,60.16,19.43c4.14.51,8.42.87,12.41-.36,4.6-1.42,8.31-4.79,11.57-8.34,14.76-16.06,22.93-36.94,30.78-57.3,8.07-20.91,16.2-42,19.68-64.17C543.39,204.67,498.68,136.38,469.11,82.08Z" fill="none"/></clipPath></defs><title>love 3</title><path d="M540.13,276.13c-7.5,54.21-45.11,97.32-86.21,135.06-9,8.32-18.25,16.32-27.32,24.18-27.68,23.86-56.89,48.53-92.53,56.5-36.21,8-74-2.43-108.07-17a448.29,448.29,0,0,1-113.74-70.6q-8-6.75-15.64-13.93C68.51,364,42.44,330.41,43.05,292c.53-30.75,18-58.32,26.82-87.75C82,163.74,78,119.1,94.76,80.35,118.26,26.14,181.43-.36,237.9,3.82c24.17,1.82,47.53,9.5,71.88,11.25,35.4,2.54,73.25-4,106.46,11.61,31.32,14.71,50.68,46.21,68.25,76C516,156.06,548.59,214.77,540.13,276.13Z" transform="translate(-43.04 30.67)" fill="#b0e0e6" opacity="0.24" style="isolation:isolate"/><path d="M455.06,406.3c-.35,1.64-.75,3.25-1.14,4.89-9,8.32-18.25,16.32-27.32,24.18-27.68,23.86-56.89,48.53-92.53,56.5-36.21,8-74-2.43-108.07-17a448.29,448.29,0,0,1-113.74-70.6,24.93,24.93,0,0,1,4.64-2.75c18-8.25,47.93-5.54,67.82-9.5,49.28-9.86,99.49-24.93,150.17-17C375.85,381.41,413.74,402.66,455.06,406.3Z" transform="translate(-43.04 30.67)" fill="#b0e0e6" opacity="0.24" style="isolation:isolate"/><path d="M198,400a5.66,5.66,0,0,0-3.51.89c-2.5,2.05,0,6.05,2.58,7.95,21.29,15.45,52.66,9.88,74,25.19,2.07,1.48,4.25,3.21,6.78,3.12,2.95-.11,5.15-2.63,7.77-4,3.86-2,8.51-1.39,12.75-.47A104.84,104.84,0,0,1,326,442.87c5.22,2.81,11,6.2,16.7,4.52,3.45-1,6.09-3.71,8.93-5.92,7.18-5.56,16.13-8.15,24.44-11.81a98.43,98.43,0,0,0,25.42-16.23c3.09-2.72,6.27-6.68,4.8-10.53-1.17-3-4.73-4.35-7.94-4.92-19.21-3.41-38.26,6.74-57.77,7.17-10.24.22-20.32-2.24-30.37-4.23-3.32-.66-6.77-1.27-10.07-.48s-6.39,3.36-6.73,6.73c-.13,1.31.1,2.8-.77,3.8s-2.17,1-3.38.93c-13.9-.51-27-6.64-40.76-8.75A281.9,281.9,0,0,0,198,400Z" transform="translate(-43.04 30.67)" fill="#b0e0e6" opacity="0.24" style="isolation:isolate"/><path d="M281,193.13c-.54,10.36-2.79,20.64-2.25,31,.28,5,1.18,10.07,1,15.11s-1.89,10.28-5.75,13.53c-6.07,5.07-15.07,3.5-22.78,1.68-1.93-.46-4-1-5.29-2.53a9.11,9.11,0,0,1-1.71-5,169.6,169.6,0,0,1-.93-25.9c.11-3.92.28-7.85.46-11.74.07-2,.18-4,.32-5.86.9-12.25,3.29-23.21,11-33.57,1-1.32,2.11-3,3.39-4.57,0,0,0-.07.07-.11.43-.54.9-1.07,1.36-1.57l0,0a11.23,11.23,0,0,1,4.35-3,6,6,0,0,1,2.54-.43c5.86.21,9.64,7.32,11.5,12C280.93,178.78,281.43,186.1,281,193.13Z" transform="translate(-43.04 30.67)" fill="#b0e0e6"/><path d="M237.84,160.77c-2.19,1.69-5,2.69-6.58,4.95-2,2.87-1.36,6.85.13,10,.86,1.82,2,3.73,1.64,5.71s-2.31,3.49-3.68,5.12a11.06,11.06,0,0,0,5,17.6c4,1.34,8.53.24,12.16-1.94s6.54-5.37,9.38-8.51a14.81,14.81,0,0,0,2.64-3.62c2.47-5.49-2.35-11.75-1.43-17.7.46-3,2.35-5.64,2.84-8.64.59-3.62-1-7.3-3.19-10.22-2.54-3.33-8.58-7.6-12.58-3.82C241,152.66,241.72,157.8,237.84,160.77Z" transform="translate(-43.04 30.67)" fill="#606161"/><path d="M259.93,163.6v.14a11.26,11.26,0,0,1-.39,1.57l-.11.32c-.75,2.29-2,4.4-2.36,6.75-.89,6,3.93,12.22,1.43,17.72a14.34,14.34,0,0,1-2.61,3.6c-2.85,3.15-5.74,6.33-9.39,8.5a14.53,14.53,0,0,1-2.43,1.22,15.61,15.61,0,0,1-3.75,1.14,171.41,171.41,0,0,0,1.33-23.43c0-3-.15-6,.71-8.92s2.79-5.58,5.64-6.5a14.93,14.93,0,0,1,3.82-.43c1.93,0,4.65-.57,6.68,0,0,0,0-.07.07-.11C259,164.63,259.47,164.1,259.93,163.6Z" transform="translate(-43.04 30.67)" fill="url(#linear-gradient)"/><path d="M306.79,260.2c2.42-3.81,2.87-8.55,2.61-13s-1.18-9-1.2-13.47c0-5.86,1.41-11.59,1.69-17.42.17-3.31.2-4.3-3.19-4.77-1.77-.25-3.92-.47-5.47.63-3.37,2.4-2.07,9.06-1.9,12.53a114.52,114.52,0,0,0,2.14,17.2q1,4.77,2.31,9.43C304.13,252.48,307.28,259.42,306.79,260.2Z" transform="translate(-43.04 30.67)" fill="url(#linear-gradient-2)"/><path d="M306.79,260.2c2.42-3.81,2.87-8.55,2.61-13s-1.18-9-1.2-13.47c0-5.86,1.41-11.59,1.69-17.42.17-3.31.2-4.3-3.19-4.77-1.77-.25-3.92-.47-5.47.63-3.37,2.4-2.07,9.06-1.9,12.53a114.52,114.52,0,0,0,2.14,17.2q1,4.77,2.31,9.43C304.13,252.48,307.28,259.42,306.79,260.2Z" transform="translate(-43.04 30.67)" fill="url(#linear-gradient-2)"/><path d="M273.67,133.16a6.6,6.6,0,0,0,2.42,6,4.58,4.58,0,0,1,1.6,1.55c.4.9,0,1.93-.23,2.9-.4,2.07.35,4.28-.33,6.28s-2.55,3.23-4.39,4.18a5.19,5.19,0,0,0-1.56,1,4.14,4.14,0,0,0-.78,1.57,13.56,13.56,0,0,0-.56,4.52,17.89,17.89,0,0,1,.07,3.1,3.19,3.19,0,0,1-1.58,2.53,2.89,2.89,0,0,1-2.42-.09,6.5,6.5,0,0,1-2-1.54,23.09,23.09,0,0,1-5.63-12.91,62.44,62.44,0,0,1-.21-10.05,25.52,25.52,0,0,1,.65-5.92,10.64,10.64,0,0,1,5.8-7.09,7.74,7.74,0,0,1,8.69,1.75" transform="translate(-43.04 30.67)" fill="#ba816c"/><path d="M264.32,160.53a6.71,6.71,0,0,1-.39,2.07,4.44,4.44,0,0,1-4.39,2.71,3,3,0,0,1-1-.14c.43-.54.9-1.07,1.36-1.57l0,0A11.23,11.23,0,0,1,264.32,160.53Z" transform="translate(-43.04 30.67)" fill="#606161"/><path d="M264.32,160.53a6.71,6.71,0,0,1-.39,2.07,4.44,4.44,0,0,1-4.39,2.71,3,3,0,0,1-1-.14c.43-.54.9-1.07,1.36-1.57l0,0A11.23,11.23,0,0,1,264.32,160.53Z" transform="translate(-43.04 30.67)" fill="url(#linear-gradient-4)"/><path d="M264.72,219.74a8.65,8.65,0,0,1-4.83,2,41.41,41.41,0,0,1-13.24.18,11.92,11.92,0,0,1-3.36-.9,5.14,5.14,0,0,1-1.39-.82c-3.15-2.46-2.72-7.25-2.15-11.21.22-1.46.43-3,.57-4.43a171.41,171.41,0,0,0,1.33-23.43c0-3-.15-6,.71-8.92s2.79-5.58,5.64-6.5a14.93,14.93,0,0,1,3.82-.43c1.93,0,10.57-.84,10.79-.67,1.92,1.83-.75,7.06-1,9.45-.64,8.25-1.57,16.5-2.67,24.72a9.75,9.75,0,0,0,5,.78,1.77,1.77,0,0,1,1.36.22,1.48,1.48,0,0,1,.32,1c.25,3.75.5,7.47.75,11.18C266.61,214.7,266.64,217.77,264.72,219.74Z" transform="translate(-43.04 30.67)" fill="#b0e0e6"/><path d="M285.9,170.86c1.51,3.1,1.82,6.63,2.08,10.08.87,11.65,1.41,23.33,1.94,35,.36,7.67.71,15.42-.71,23a34.64,34.64,0,0,1-4.83,12.72c-4.12-4.09-6-10-6.6-15.73s.07-11.59.32-17.39a174.87,174.87,0,0,0-1.31-28.2c-1-8.62-4.41-18.6-4-27.16C278,162.29,283.71,166.37,285.9,170.86Z" transform="translate(-43.04 30.67)" fill="#b0e0e6"/><path d="M247.47,250.36a590.67,590.67,0,0,0,4.19,60.77c2.9,23.92,5.37,48.17,9.65,71.88,1.18,1,2.56-1.06,2.75-2.6,3.2-25.54,6.41-51.25,5-77-.31-5.52-.83-11.12.31-16.53,2.45,2.26,2.93,5.89,3.2,9.2,2.93,35.78-1.12,71.78.4,107.65a2.23,2.23,0,0,0,.56,1.67,1.76,1.76,0,0,0,1.25.3,5.88,5.88,0,0,0,4.55-3.52,17.12,17.12,0,0,0,1.26-5.86c3.86-40.39,7.72-80.82,8.79-121.38.26-10,.08-20.87-6.13-28.71a7.91,7.91,0,0,0-4.52-3.21,9.53,9.53,0,0,0-3.78.34C266.43,245.35,256,248.42,247.47,250.36Z" transform="translate(-43.04 30.67)" fill="#606161"/><path d="M251.14,207.6a12.07,12.07,0,0,1,4,.72,8.29,8.29,0,0,1,2.69,2c3.82,4,5.22,9.72,6.13,15.18,1,5.78,1.54,11.62,2.11,17.45a11.09,11.09,0,0,1-.34,5.35,7.37,7.37,0,0,1-4.54,3.91,19.87,19.87,0,0,1-6.1.8c-6.62.12-13.23-.24-19.84-.65a39.2,39.2,0,0,1-10.29-1.56,7.43,7.43,0,0,1-4.15-2.85,7.59,7.59,0,0,1-.86-2.64c-1.83-10.21,2.42-20.37,4.74-30.48,1-4.19,2.67-10.5,8.08-10.13C238.88,205.14,244.94,207.14,251.14,207.6Z" transform="translate(-43.04 30.67)" fill="#606161"/><path d="M251.14,207.6a12.07,12.07,0,0,1,4,.72,8.29,8.29,0,0,1,2.69,2c3.82,4,5.22,9.72,6.13,15.18,1,5.78,1.54,11.62,2.11,17.45a11.09,11.09,0,0,1-.34,5.35,7.37,7.37,0,0,1-4.54,3.91,19.87,19.87,0,0,1-6.1.8c-6.62.12-13.23-.24-19.84-.65a39.2,39.2,0,0,1-10.29-1.56,7.43,7.43,0,0,1-4.15-2.85,7.59,7.59,0,0,1-.86-2.64c-1.83-10.21,2.42-20.37,4.74-30.48,1-4.19,2.67-10.5,8.08-10.13C238.88,205.14,244.94,207.14,251.14,207.6Z" transform="translate(-43.04 30.67)" fill="url(#linear-gradient-5)"/><path d="M271.67,411.18a9.8,9.8,0,0,0-.53,4.11,101.25,101.25,0,0,0,.8,13.15,13.14,13.14,0,0,0,1.51,5,5.45,5.45,0,0,0,4.16,2.8,5.37,5.37,0,0,0,4.44-2.39,11.37,11.37,0,0,0,1.75-4.92,38.37,38.37,0,0,0-.92-14.46,9.84,9.84,0,0,0-2.45-5.16C278.22,407.24,272.86,408.45,271.67,411.18Z" transform="translate(-43.04 30.67)" fill="#b0e0e6"/><path d="M256.85,401.26a13.54,13.54,0,0,0-.73,3.8c-.52,5.6-1,11.64,1.92,16.48a1.85,1.85,0,0,0,.58.66,1.93,1.93,0,0,0,1.12.13l3.19-.26a2.65,2.65,0,0,0,1.3-.34,2.54,2.54,0,0,0,.65-.8c3.16-5.4,3.87-13.93,2.76-20C266.56,395,258.72,396.64,256.85,401.26Z" transform="translate(-43.04 30.67)" fill="#b0e0e6"/><path d="M260,372.77q-.44,15.32-.55,30.63c1.76.06,3.89-.09,4.71-1.64a4.56,4.56,0,0,0,.41-1.67,125.16,125.16,0,0,0,.1-28,43.62,43.62,0,0,0-5,5.33" transform="translate(-43.04 30.67)" fill="#ba816c"/><path d="M280.11,393.81a.44.44,0,0,1,.35.13.42.42,0,0,1,.07.29,118.65,118.65,0,0,1-.66,17.79,6.66,6.66,0,0,1-1.24,3.55,5,5,0,0,1-3.09,1.52,1.3,1.3,0,0,1-.78,0,1.34,1.34,0,0,1-.51-.59,15,15,0,0,1-1.36-5.79,129.12,129.12,0,0,1-.49-13.19c0-1.63-.45-3.43,1.52-3.68A33.68,33.68,0,0,1,280.11,393.81Z" transform="translate(-43.04 30.67)" fill="#ba816c"/><path d="M277.62,233.93a8.82,8.82,0,0,0-.89,3.63,7.08,7.08,0,0,0,1.81,3.89,51,51,0,0,0,8.61,8,2.14,2.14,0,0,0,1,.54c.68.06,1.23-.53,1.63-1.09,4.39-6.22,4.3-14.44,4-22q-.48-14.06-1-28.13c-.32-9.46-1-19.83-7.52-26.7-4.3-4.54-4.69,2.58-4.69,5.4,0,3.84.51,7.63.85,11.45.88,9.75,1.33,19.63,0,29.36A67,67,0,0,1,277.62,233.93Z" transform="translate(-43.04 30.67)" fill="#b0e0e6"/><path d="M277.62,233.93a8.82,8.82,0,0,0-.89,3.63,7.08,7.08,0,0,0,1.81,3.89,51,51,0,0,0,8.61,8,2.14,2.14,0,0,0,1,.54c.68.06,1.23-.53,1.63-1.09,4.39-6.22,4.3-14.44,4-22q-.48-14.06-1-28.13c-.32-9.46-1-19.83-7.52-26.7-4.3-4.54-4.69,2.58-4.69,5.4,0,3.84.51,7.63.85,11.45.88,9.75,1.33,19.63,0,29.36A67,67,0,0,1,277.62,233.93Z" transform="translate(-43.04 30.67)" fill="#b0e0e6"/><path d="M281.1,241.46s3.85-7.08,3.26-14.6-.33-20.11-.33-20.11l.33-27.48s6.7,37.54,6.7,44.24-4.54,20.64-4.54,20.64Z" transform="translate(-43.04 30.67)" fill="url(#linear-gradient-6)"/><path d="M287,211.32c-1,.75-2.31.72-3.45,1.17a4.43,4.43,0,0,0-2.75,3.84,3.08,3.08,0,0,0,.44,1.79,3.19,3.19,0,0,0,2.56,1.23,6.38,6.38,0,0,0,4.64-2,12.58,12.58,0,0,0,2.6-4.48,23.48,23.48,0,0,0,1.4-8.05c0-2.82-3-4.49-4-1.44C287.57,205.79,289.45,209.36,287,211.32Z" transform="translate(-43.04 30.67)" fill="#b0e0e6"/><path d="M287,211.32c-1,.75-2.31.72-3.45,1.17a4.43,4.43,0,0,0-2.75,3.84,3.08,3.08,0,0,0,.44,1.79,3.19,3.19,0,0,0,2.56,1.23,6.38,6.38,0,0,0,4.64-2,12.58,12.58,0,0,0,2.6-4.48,23.48,23.48,0,0,0,1.4-8.05c0-2.82-3-4.49-4-1.44C287.57,205.79,289.45,209.36,287,211.32Z" transform="translate(-43.04 30.67)" fill="url(#linear-gradient-7)"/><path d="M279.25,249.3a53.36,53.36,0,0,0,3.43,7,1.28,1.28,0,0,0,.45.5c.47.21,1-.25,1.24-.67,2.27-3.45,2.4-7.85,2.15-12a4.19,4.19,0,0,0-.24-1.36c-.91-2.13-3.95-3.84-5.18-1.33S278.19,246.63,279.25,249.3Z" transform="translate(-43.04 30.67)" fill="#ba816c"/><path d="M315.59,124.73a19.38,19.38,0,0,1-.79,7.26,1.84,1.84,0,0,0-.13.89c.12.54.69.83,1.18,1.09a8.18,8.18,0,0,1,3.29,3.28c.74,1.37,1.12,3,2.3,4,1.69,1.46,4.34,1,6.24-.14a4,4,0,0,1-.84,4.48,18.57,18.57,0,0,1-3.9,2.88c-.43.29-.89.67-.91,1.18a1.68,1.68,0,0,0,.38,1,12.86,12.86,0,0,0,6.78,5.46c4,1.14,8.2-.63,12-2.39a7.41,7.41,0,0,0,3.31-2.41c.85-1.34.75-3.05.62-4.64a1.47,1.47,0,0,0-.35-1,2,2,0,0,0-.92-.34c-1.63-.41-2.53-2.12-3.22-3.66a12,12,0,0,1-1.35-7.12c.2-4.83.42-9.9-1.76-14.21a6.09,6.09,0,0,0-2.72-3,7.59,7.59,0,0,0-3-.47l-6.11-.15c-2.37,0-5,0-6.81,1.49a9.83,9.83,0,0,0-2.5,4.12,10.56,10.56,0,0,1-.54,1.06A2.5,2.5,0,0,0,315.59,124.73Z" transform="translate(-43.04 30.67)" fill="url(#linear-gradient-8)"/><path d="M322,105.57c-3.06.26-5.17,3.06-7.71,4.77-1.14.77-2.41,1.33-3.52,2.14a5.31,5.31,0,0,0-2.32,3.26c-.27,1.66.65,3.27,1.63,4.64,1.41,2,3.35,3.94,5.77,3.89,2.74-.06,4.7-2.68,7.27-3.66a3.36,3.36,0,0,1,2.25-.16,6.68,6.68,0,0,1,1.27.72,7.68,7.68,0,0,0,4.88,1.14l2.27,7.07,1-2.67c.11-.31.31-.67.64-.65a.69.69,0,0,1,.42.27,3.4,3.4,0,0,1-.67,4.94,3.65,3.65,0,0,1,2.62,2.08,10.61,10.61,0,0,1,.86,3.34c1.35-.75,1.42-2.61,1.76-4.12a8.23,8.23,0,0,1,2.11-3.95,4.42,4.42,0,0,0,.68-.82,2.59,2.59,0,0,0,.24-1.41c-.11-1.81-1.06-3.46-1.51-5.23a23.54,23.54,0,0,1-.32-6.11,10.18,10.18,0,0,0-.45-3.73,11.42,11.42,0,0,0-3-3.89,6.57,6.57,0,0,0-3-2,16,16,0,0,0-2.94-.07,20.2,20.2,0,0,1-4.68-1.32c-1.55-.46-3.41-.55-4.63.52" transform="translate(-43.04 30.67)" fill="#606161"/><path d="M366.21,200.53c-.57,1.67-1.25,3.28-1.82,5a29.35,29.35,0,0,0-1.07,3.64,41.64,41.64,0,0,0-.72,9.86c0,6.82,0,13.64,0,20.43a21,21,0,0,1-.61,5.82,7,7,0,0,1-2.14,3.64c-1.79,1.57-4.29,1.93-6.68,2.18a272.56,272.56,0,0,1-41.1,1.39,4.11,4.11,0,0,1-1.65-.32c-1.18-.61-1.43-2.21-1.39-3.54a29.63,29.63,0,0,1,1.64-9.46c.9-2.61,2.18-5.21,1.9-7.93-.47-4.28-4.65-8-3.47-12.14a34.8,34.8,0,0,1-9.32-1.71,3.26,3.26,0,0,1-1.46-.79,3.51,3.51,0,0,1-.32-2.79c2.21-13.1,2.94-48.34,10.2-58.8,3.32-4.78,16.15-8.83,17.44-9.41l.1,0c.43-.18.75-.32.9-.36,1.35-.25-1.22,2.25-.75,3,3.85,6.29,10.6,1.68,15.67,1.29,3.11-.22,2.68-4.18.54-5.15,1.21.33,2.5.61,3.79.93,4.17,1,8.6,2.11,12.6,3.11a15.08,15.08,0,0,1,5.68,2.21c3.21,2.47,3.93,6.93,4.36,10.93C369.92,174.56,370.53,188.1,366.21,200.53Z" transform="translate(-43.04 30.67)" fill="#b0e0e6"/><path d="M363.32,209.13a41.64,41.64,0,0,0-.72,9.86c0,6.82,0,13.64,0,20.43a30.34,30.34,0,0,1-1,6.92c-2,1.58-4,1.4-6.46,1.15-3.29-.36-6.33-3.18-6.29-6.47a13.24,13.24,0,0,1,.86-3.67,77.21,77.21,0,0,0,4-25.29c-6-.71-12.1-1.43-18.14-2.18a112.33,112.33,0,0,0-15.86-1.1c-6.35.17-8,1.14-6-5.61,16.79-2.25,34.07,5.5,50.61,2.32A29.35,29.35,0,0,0,363.32,209.13Z" transform="translate(-43.04 30.67)" fill="url(#linear-gradient-9)"/><path d="M345.35,149.6c-1.82,1.18-4.67,1.86-7.46,3.36s-9.86,1.93-11.28.25-3.54-3.54-2.54-6.86l1.61-.79.1,0c.43-.18.75-.32.9-.36,1.35-.25-1.22,2.25-.75,3,3.85,6.29,10.6,1.68,15.67,1.29,3.11-.22,2.68-4.18.54-5.15l3.71.75.08.18C346.18,145.92,347,148.56,345.35,149.6Z" transform="translate(-43.04 30.67)" fill="url(#linear-gradient-10)"/><path d="M309.89,216.26s7-20.9,5.31-29.28-.34-30.84-.34-30.84-11.73,11.73-12.06,14.41-4.43,46-4.43,46S308.61,223.43,309.89,216.26Z" transform="translate(-43.04 30.67)" fill="url(#linear-gradient-11)"/><path d="M357.18,315.77c-1.18,5.43-1.93,11-3.43,16.32a60.47,60.47,0,0,0-1.72,6.64c-.6,3.93,0,7.93.32,11.89.75,8.86.33,17.79-.1,26.65-.47,9.32-.9,18.6-1.36,27.89-.18,3.89-.46,8-2.71,11.14a8.38,8.38,0,0,1-1.29,1.43c-2.54,2.14-6.43,2.82-8.75.57a8.38,8.38,0,0,1-2.21-4.64,60.22,60.22,0,0,1-1-12.5c-.11-37.93.57-74.39.32-112.35,0-4.43-.75-10.79.32-14-.39.61-.75,1.25-1.07,1.86a90.35,90.35,0,0,0-11.75,35.14,173.75,173.75,0,0,0-.86,18.39q-.37,25.71-.71,51.43c0,2.82-.07,5.75-1.36,8.28a7,7,0,0,1-5.14,3.93,4.55,4.55,0,0,1-1.72-.11c-3.85-.92-4.85-5.85-5.1-9.82-2.57-39.82-5.11-79.78-2-119.53.57-7.71,1.93-19.89,8.71-16.35,8.79,4.53,23.75,1.14,33.57.07a2.74,2.74,0,0,0,.5-.07,35.66,35.66,0,0,0,5.58-1.61,13.09,13.09,0,0,1,4.78-.86.08.08,0,0,1,.11,0,4.65,4.65,0,0,1,1.93.5c.25.11.46.22.64.32C366.17,249.13,360.92,298.23,357.18,315.77Z" transform="translate(-43.04 30.67)" fill="#606161"/><path d="M337.13,434.13c.19,6,2,12.37,6.91,15.82a1.53,1.53,0,0,0,.67.31,1.46,1.46,0,0,0,1-.37c3.15-2.36,3.54-6.85,3.66-10.78.09-3.17.17-6.45-1-9.4-.43-1.1-1-2.14-1.34-3.27a14.62,14.62,0,0,1-.37-3.74l-.07-7.81c0,.15-6.44.48-7,.66-1.84.55-1.8,1.49-1.84,3.25C337.61,423.9,337,429,337.13,434.13Z" transform="translate(-43.04 30.67)" fill="#b0e0e6"/><path d="M309.82,398c-.11,1.28-.4,2.54-.53,3.82a23.77,23.77,0,0,0,.76,7.82,15.14,15.14,0,0,0,1.72,4.59,6.41,6.41,0,0,0,3.79,2.95,3.44,3.44,0,0,0,1.83,0,3.6,3.6,0,0,0,1.74-1.37c1.29-1.83,1.32-4.23,1.29-6.47a38.72,38.72,0,0,0-.51-7c-.23-1.21-.58-2.41-.72-3.64-.35-3,.54-6.28-.69-9.08a17.8,17.8,0,0,1-4.69.69c-1.09,0-2.52-.35-3.46.38C308.53,392.1,310,396.05,309.82,398Z" transform="translate(-43.04 30.67)" fill="#b0e0e6"/><path d="M307.87,194.11a19.2,19.2,0,0,1-6.89-.55,46,46,0,0,0-4.64-1.82,1.44,1.44,0,0,0-1.08.09c-.35.23-.45.68-.66,1-.62,1.11-2.11,1.34-3.39,1.3s-2.67-.21-3.72.51c-1.8,1.22-1.35,4-.69,6l1,3.05a4.62,4.62,0,0,0,.88,1.79,4.11,4.11,0,0,0,2,1,24.79,24.79,0,0,0,10.35.76,6.49,6.49,0,0,0,3.27-1.16,10.15,10.15,0,0,1,1.58-1.36,4.35,4.35,0,0,1,2.06-.33l11.33.09a108.36,108.36,0,0,1,15.29.84c7.55,1.13,15,3.88,22.61,2.95a7.18,7.18,0,0,0,3.48-1.16,8.17,8.17,0,0,0,2.42-4,9.62,9.62,0,0,0,.74-3.49c-.1-3-3-5.82-5.65-7-2.83-1.26-6.74-.4-9.73-.27l-26.08,1.06Z" transform="translate(-43.04 30.67)" fill="url(#linear-gradient-12)"/><rect x="245.13" y="104.55" width="3.04" height="120.29" fill="#b0e0e6"/><rect x="245.13" y="104.55" width="3.04" height="120.29" fill="url(#linear-gradient-13)"/><path d="M310.79,36.68C361.51,43,378.16,86,378.16,86s-37.87-9.94-54,8.7c0,0-28.83-21.54-58.66.82,0,0-34.52-16.15-58-4.14C207.56,91.36,237.05,27.57,310.79,36.68Z" transform="translate(-43.04 30.67)" fill="#b0e0e6"/><path d="M310.79,36.68C361.51,43,378.16,86,378.16,86s-37.87-9.94-54,8.7c0,0-28.83-21.54-58.66.82,0,0-34.52-16.15-58-4.14C207.56,91.36,237.05,27.57,310.79,36.68Z" transform="translate(-43.04 30.67)" fill="url(#linear-gradient-14)"/><path d="M291.47,183a3.15,3.15,0,0,1,1.4.22,2.78,2.78,0,0,1,1.1,1c1.6,2.39,1.43,5.52,1,8.37a6.23,6.23,0,0,1-.76,2.58,5.93,5.93,0,0,1-3.64,2.15,34.2,34.2,0,0,1-8.47,1.24,2,2,0,0,1-1.09-.19c-2.19-1.34-1-8.84.17-10.83C283,184.42,288.14,183,291.47,183Z" transform="translate(-43.04 30.67)" fill="#ba816c"/><path d="M272.93,130.74a8.39,8.39,0,0,1-2.39,4.29c-1.07,1-2.32,1.82-3.5,2.75a3.51,3.51,0,0,0-1.65,2.61,12.52,12.52,0,0,0,.68,2.21c.36,1.57-.68,3.07-1.75,4.25a6.8,6.8,0,0,0-1.75,2.43c-.64,1.93.79,3.86,1.36,5.78a15.5,15.5,0,0,1,.43,4.61c0,.29,0,.57,0,.86a11.23,11.23,0,0,0-4.35,3l-1,1.13s-5.22.55-7.15.59a14.93,14.93,0,0,0-3.82.43c-2.85.92-4.82,3.64-5.64,6.5s-.75,5.92-.71,8.92a171.41,171.41,0,0,1-1.33,23.43,12.7,12.7,0,0,1-6-.39,11.07,11.07,0,0,1-5-17.61c1.36-1.64,3.29-3,3.68-5.1s-.79-3.9-1.64-5.72c-1.5-3.18-2.15-7.14-.15-10,1.57-2.28,4.4-3.28,6.61-5,3.36-2.57,3.29-6.79,5.25-9.79a5.93,5.93,0,0,1-.61-3.93c.4-1.42,1.57-2.42,2.43-3.6,2.79-3.82,1.93-9.47,4.86-13.18a13.51,13.51,0,0,1,6.1-3.79,40.69,40.69,0,0,1,10.25-2.21c2.36-.21,4.72-.36,6,1.68A6.79,6.79,0,0,1,272.93,130.74Z" transform="translate(-43.04 30.67)" fill="#606161"/><path d="M272.93,130.74a8.39,8.39,0,0,1-2.39,4.29c-1.07,1-2.32,1.82-3.5,2.75a3.51,3.51,0,0,0-1.65,2.61,12.52,12.52,0,0,0,.68,2.21c.36,1.57-.68,3.07-1.75,4.25a6.8,6.8,0,0,0-1.75,2.43c-.64,1.93.79,3.86,1.36,5.78a15.5,15.5,0,0,1,.43,4.61c0,.29,0,.57,0,.86a11.23,11.23,0,0,0-4.35,3l-1,1.13s-5.22.55-7.15.59a14.93,14.93,0,0,0-3.82.43c-2.85.92-4.82,3.64-5.64,6.5s-.75,5.92-.71,8.92a171.41,171.41,0,0,1-1.33,23.43,12.7,12.7,0,0,1-6-.39,11.07,11.07,0,0,1-5-17.61c1.36-1.64,3.29-3,3.68-5.1s-.79-3.9-1.64-5.72c-1.5-3.18-2.15-7.14-.15-10,1.57-2.28,4.4-3.28,6.61-5,3.36-2.57,3.29-6.79,5.25-9.79a5.93,5.93,0,0,1-.61-3.93c.4-1.42,1.57-2.42,2.43-3.6,2.79-3.82,1.93-9.47,4.86-13.18a13.51,13.51,0,0,1,6.1-3.79,40.69,40.69,0,0,1,10.25-2.21c2.36-.21,4.72-.36,6,1.68A6.79,6.79,0,0,1,272.93,130.74Z" transform="translate(-43.04 30.67)" fill="url(#linear-gradient-15)"/><path d="M250.68,217.35c2.1.09,2.88-2.71,3-4.81.46-12.39.93-24.88-1-37.13-.53-3.4-1.16-7.93-3.59-10.48-.48-.58-3.47,1.16-3.47,1.16.73.27,3.41,2.62,4,7.55A141.39,141.39,0,0,1,250.85,188C251,197.8,250.15,207.58,250.68,217.35Z" transform="translate(-43.04 30.67)" fill="#606161"/><path d="M250.68,217.35c2.1.09,2.88-2.71,3-4.81.46-12.39.93-24.88-1-37.13-.53-3.4-1.16-7.93-3.59-10.48-.48-.58-3.47,1.16-3.47,1.16.73.27,3.41,2.62,4,7.55A141.39,141.39,0,0,1,250.85,188C251,197.8,250.15,207.58,250.68,217.35Z" transform="translate(-43.04 30.67)" fill="url(#linear-gradient-16)"/><path d="M352.51,185.46l1.75-7.69a12.88,12.88,0,0,0,.45-3.08,23.79,23.79,0,0,0-.47-3.14,22.36,22.36,0,0,1,1.59-11.17,34.57,34.57,0,0,0-5.06,8.73c-1.21,3.55-1.24,7.38-2.06,11a26.31,26.31,0,0,1-7,12.77c.27-.27,3.45.15,4,.12,1.13-.07,3.13,0,4.08-.69C351.54,191.1,352.07,187.39,352.51,185.46Z" transform="translate(-43.04 30.67)" fill="url(#linear-gradient-17)"/><path d="M335.35,274.77c-.32.61-.6,1.25-.85,1.86a90.35,90.35,0,0,0-11.75,35.14,173.75,173.75,0,0,0-.86,18.39q-.37,25.71-.71,51.43c0,2.82-.07,5.75-1.36,8.28a7,7,0,0,1-5.14,3.93c-.68-.61,2-2.76,1.61-3.54-2.83-5.18-7.46-78.93,7.54-113.37C326.26,271.31,329.32,274.24,335.35,274.77Z" transform="translate(-43.04 30.67)" fill="url(#linear-gradient-18)"/><path d="M357.18,315.77c-1.18,5.43-1.93,11-3.43,16.32a60.47,60.47,0,0,0-1.72,6.64c-.6,3.93,0,7.93.32,11.89.75,8.86.33,17.79-.1,26.65-.47,9.32-.9,18.6-1.36,27.89-.18,3.89-.46,8-2.71,11.14a8.38,8.38,0,0,1-1.29,1.43c.46-4.39.93-8.82,1.39-13.25,1.11-10.75,2.25-21.54,1.86-32.32-.5-15-3.93-29.93-3.29-44.93.58-13.64,4.47-26.89,7.11-40.24,1.89-9.65-3.64-31.43-5.36-39a35.66,35.66,0,0,0,5.58-1.61,13.09,13.09,0,0,1,4.78-.86.08.08,0,0,1,.11,0,16.14,16.14,0,0,1,1.93.5c.25.11.46.22.64.32C366.17,249.13,360.92,298.23,357.18,315.77Z" transform="translate(-43.04 30.67)" fill="url(#linear-gradient-19)"/><path d="M235.09,210.27l6.54-30.42.08,11.82-4.61,21.62S234,215.38,235.09,210.27Z" transform="translate(-43.04 30.67)" fill="#606161"/><path d="M235.09,210.27l6.54-30.42.08,11.82-4.61,21.62S234,215.38,235.09,210.27Z" transform="translate(-43.04 30.67)" fill="url(#linear-gradient-20)"/><path d="M253.35,243.74a5.34,5.34,0,0,0,.33,3.43,4.58,4.58,0,0,0,2.19,1.67c2.3,1,5.34,1.34,7.06-.51,1.45-1.56,1.33-4,1.13-6.09l-1.16-12.1a112,112,0,0,0-1.44-11.27c-1.09-5.49-2.56-2.33-3.5,1.26A191.54,191.54,0,0,0,253.35,243.74Z" transform="translate(-43.04 30.67)" fill="url(#linear-gradient-21)"/><path d="M248.44,216.27q3.84.25,7.7.35c1.78,0,4.24-.68,3.95-2.44A60.84,60.84,0,0,1,261.63,247a5.56,5.56,0,0,0,6.67-3.64,11,11,0,0,0,.17-3.81q-.81-11.58-.51-23.21a4.09,4.09,0,0,1,.38-2,3.76,3.76,0,0,1,1.39-1.23c2.83-1.66,6.2-2.23,9-3.88s5.14-5.17,3.74-8.15c-8.22,4-17.77,3.88-26.91,3.51-3.41-.14-11.42-1-13.09,3.07C240.75,211.91,244.52,216,248.44,216.27Z" transform="translate(-43.04 30.67)" fill="url(#linear-gradient-22)"/><path d="M274.66,207.94c1.55-.65,3.14-1.62,3.66-3.22.39-1.18,4.19-5,3.83-6.15-.81-2.65,1.34-8.07-.07-10.46a2.89,2.89,0,0,0-1.24-1.3c-.49-.2-8.42,5.21-8.95,5.29l-17.68,2.62c-3.59.53-8.46.17-10.09,4.11-1.1,2.62-5,6.44-3.31,8.61,2.7,3.41,11.85,4.1,15.77,4.21A40.77,40.77,0,0,0,274.66,207.94Z" transform="translate(-43.04 30.67)" fill="#b0e0e6"/><g clip-path="url(#clip-path)"><line x1="108.69" y1="25.01" x2="106.51" y2="32.34" fill="none" stroke="#fff" stroke-linecap="round" stroke-miterlimit="10" stroke-width="1.91"/><line x1="102.02" y1="47.43" x2="5.43" y2="371.96" fill="none" stroke="#fff" stroke-linecap="round" stroke-miterlimit="10" stroke-width="1.91" stroke-dasharray="15.75 15.75"/><line x1="3.19" y1="379.5" x2="1" y2="386.84" fill="none" stroke="#fff" stroke-linecap="round" stroke-miterlimit="10" stroke-width="1.91"/><line x1="133.82" y1="28.06" x2="131.64" y2="35.39" fill="none" stroke="#fff" stroke-linecap="round" stroke-miterlimit="10" stroke-width="1.91"/><line x1="127.14" y1="50.48" x2="30.56" y2="375.01" fill="none" stroke="#fff" stroke-linecap="round" stroke-miterlimit="10" stroke-width="1.91" stroke-dasharray="15.75 15.75"/><line x1="28.31" y1="382.56" x2="26.13" y2="389.89" fill="none" stroke="#fff" stroke-linecap="round" stroke-miterlimit="10" stroke-width="1.91"/><line x1="140.82" y1="40.62" x2="138.64" y2="47.95" fill="none" stroke="#fff" stroke-linecap="round" stroke-miterlimit="10" stroke-width="1.91"/><line x1="134.14" y1="63.05" x2="37.56" y2="387.57" fill="none" stroke="#fff" stroke-linecap="round" stroke-miterlimit="10" stroke-width="1.91" stroke-dasharray="15.75 15.75"/><line x1="35.31" y1="395.12" x2="33.13" y2="402.45" fill="none" stroke="#fff" stroke-linecap="round" stroke-miterlimit="10" stroke-width="1.91"/><line x1="156.79" y1="29.49" x2="154.61" y2="36.82" fill="none" stroke="#fff" stroke-linecap="round" stroke-miterlimit="10" stroke-width="1.91"/><line x1="150.12" y1="51.92" x2="53.53" y2="376.44" fill="none" stroke="#fff" stroke-linecap="round" stroke-miterlimit="10" stroke-width="1.91" stroke-dasharray="15.75 15.75"/><line x1="51.29" y1="383.99" x2="49.1" y2="391.32" fill="none" stroke="#fff" stroke-linecap="round" stroke-miterlimit="10" stroke-width="1.91"/><line x1="179.76" y1="30.93" x2="177.58" y2="38.26" fill="none" stroke="#fff" stroke-linecap="round" stroke-miterlimit="10" stroke-width="1.91"/><line x1="173.09" y1="53.35" x2="76.51" y2="377.88" fill="none" stroke="#fff" stroke-linecap="round" stroke-miterlimit="10" stroke-width="1.91" stroke-dasharray="15.75 15.75"/><line x1="74.26" y1="385.43" x2="72.08" y2="392.76" fill="none" stroke="#fff" stroke-linecap="round" stroke-miterlimit="10" stroke-width="1.91"/><line x1="171.69" y1="27.16" x2="169.51" y2="34.49" fill="none" stroke="#fff" stroke-linecap="round" stroke-miterlimit="10" stroke-width="1.91"/><line x1="165.01" y1="49.59" x2="68.43" y2="374.11" fill="none" stroke="#fff" stroke-linecap="round" stroke-miterlimit="10" stroke-width="1.91" stroke-dasharray="15.75 15.75"/><line x1="66.18" y1="381.66" x2="64" y2="388.99" fill="none" stroke="#fff" stroke-linecap="round" stroke-miterlimit="10" stroke-width="1.91"/><line x1="202.74" y1="32.36" x2="200.56" y2="39.7" fill="none" stroke="#fff" stroke-linecap="round" stroke-miterlimit="10" stroke-width="1.91"/><line x1="196.06" y1="54.79" x2="99.48" y2="379.32" fill="none" stroke="#fff" stroke-linecap="round" stroke-miterlimit="10" stroke-width="1.91" stroke-dasharray="15.75 15.75"/><line x1="97.23" y1="386.86" x2="95.05" y2="394.19" fill="none" stroke="#fff" stroke-linecap="round" stroke-miterlimit="10" stroke-width="1.91"/><line x1="194.66" y1="23.75" x2="192.48" y2="31.08" fill="none" stroke="#fff" stroke-linecap="round" stroke-miterlimit="10" stroke-width="1.91"/><line x1="187.99" y1="46.18" x2="91.4" y2="370.7" fill="none" stroke="#fff" stroke-linecap="round" stroke-miterlimit="10" stroke-width="1.91" stroke-dasharray="15.75 15.75"/><line x1="89.16" y1="378.25" x2="86.97" y2="385.58" fill="none" stroke="#fff" stroke-linecap="round" stroke-miterlimit="10" stroke-width="1.91"/><line x1="225.71" y1="33.8" x2="223.53" y2="41.13" fill="none" stroke="#fff" stroke-linecap="round" stroke-miterlimit="10" stroke-width="1.91"/><line x1="219.04" y1="56.23" x2="122.45" y2="380.75" fill="none" stroke="#fff" stroke-linecap="round" stroke-miterlimit="10" stroke-width="1.91" stroke-dasharray="15.75 15.75"/><line x1="120.21" y1="388.3" x2="118.02" y2="395.63" fill="none" stroke="#fff" stroke-linecap="round" stroke-miterlimit="10" stroke-width="1.91"/><line x1="218.71" y1="17.11" x2="216.53" y2="24.44" fill="none" stroke="#fff" stroke-linecap="round" stroke-miterlimit="10" stroke-width="1.91"/><line x1="212.04" y1="39.53" x2="115.45" y2="364.06" fill="none" stroke="#fff" stroke-linecap="round" stroke-miterlimit="10" stroke-width="1.91" stroke-dasharray="15.75 15.75"/><line x1="113.21" y1="371.61" x2="111.02" y2="378.94" fill="none" stroke="#fff" stroke-linecap="round" stroke-miterlimit="10" stroke-width="1.91"/><line x1="248.68" y1="35.24" x2="246.5" y2="42.57" fill="none" stroke="#fff" stroke-linecap="round" stroke-miterlimit="10" stroke-width="1.91"/><line x1="242.01" y1="57.66" x2="145.42" y2="382.19" fill="none" stroke="#fff" stroke-linecap="round" stroke-miterlimit="10" stroke-width="1.91" stroke-dasharray="15.75 15.75"/><line x1="143.18" y1="389.73" x2="141" y2="397.07" fill="none" stroke="#fff" stroke-linecap="round" stroke-miterlimit="10" stroke-width="1.91"/><line x1="240.61" y1="29.31" x2="238.43" y2="36.65" fill="none" stroke="#fff" stroke-linecap="round" stroke-miterlimit="10" stroke-width="1.91"/><line x1="233.93" y1="51.74" x2="137.35" y2="376.26" fill="none" stroke="#fff" stroke-linecap="round" stroke-miterlimit="10" stroke-width="1.91" stroke-dasharray="15.75 15.75"/><line x1="135.1" y1="383.81" x2="132.92" y2="391.14" fill="none" stroke="#fff" stroke-linecap="round" stroke-miterlimit="10" stroke-width="1.91"/><line x1="271.66" y1="36.67" x2="269.48" y2="44" fill="none" stroke="#fff" stroke-linecap="round" stroke-miterlimit="10" stroke-width="1.91"/><line x1="264.98" y1="59.1" x2="168.4" y2="383.62" fill="none" stroke="#fff" stroke-linecap="round" stroke-miterlimit="10" stroke-width="1.91" stroke-dasharray="15.75 15.75"/><line x1="166.15" y1="391.17" x2="163.97" y2="398.5" fill="none" stroke="#fff" stroke-linecap="round" stroke-miterlimit="10" stroke-width="1.91"/><line x1="264.66" y1="32.9" x2="262.48" y2="40.23" fill="none" stroke="#fff" stroke-linecap="round" stroke-miterlimit="10" stroke-width="1.91"/><line x1="257.98" y1="55.33" x2="161.4" y2="379.85" fill="none" stroke="#fff" stroke-linecap="round" stroke-miterlimit="10" stroke-width="1.91" stroke-dasharray="15.75 15.75"/><line x1="159.15" y1="387.4" x2="156.97" y2="394.73" fill="none" stroke="#fff" stroke-linecap="round" stroke-miterlimit="10" stroke-width="1.91"/><line x1="294.63" y1="38.11" x2="292.45" y2="45.44" fill="none" stroke="#fff" stroke-linecap="round" stroke-miterlimit="10" stroke-width="1.91"/><line x1="287.96" y1="60.53" x2="191.37" y2="385.06" fill="none" stroke="#fff" stroke-linecap="round" stroke-miterlimit="10" stroke-width="1.91" stroke-dasharray="15.75 15.75"/><line x1="189.13" y1="392.61" x2="186.94" y2="399.94" fill="none" stroke="#fff" stroke-linecap="round" stroke-miterlimit="10" stroke-width="1.91"/><line x1="373.24" y1="45.11" x2="371.06" y2="52.44" fill="none" stroke="#fff" stroke-linecap="round" stroke-miterlimit="10" stroke-width="1.91"/><line x1="366.57" y1="67.53" x2="269.98" y2="392.06" fill="none" stroke="#fff" stroke-linecap="round" stroke-miterlimit="10" stroke-width="1.91" stroke-dasharray="15.75 15.75"/><line x1="267.74" y1="399.61" x2="265.55" y2="406.94" fill="none" stroke="#fff" stroke-linecap="round" stroke-miterlimit="10" stroke-width="1.91"/><line x1="317.6" y1="39.54" x2="315.42" y2="46.88" fill="none" stroke="#fff" stroke-linecap="round" stroke-miterlimit="10" stroke-width="1.91"/><line x1="310.93" y1="61.97" x2="214.34" y2="386.49" fill="none" stroke="#fff" stroke-linecap="round" stroke-miterlimit="10" stroke-width="1.91" stroke-dasharray="15.75 15.75"/><line x1="212.1" y1="394.04" x2="209.92" y2="401.37" fill="none" stroke="#fff" stroke-linecap="round" stroke-miterlimit="10" stroke-width="1.91"/><line x1="340.58" y1="40.98" x2="338.4" y2="48.31" fill="none" stroke="#fff" stroke-linecap="round" stroke-miterlimit="10" stroke-width="1.91"/><line x1="333.9" y1="63.41" x2="237.32" y2="387.93" fill="none" stroke="#fff" stroke-linecap="round" stroke-miterlimit="10" stroke-width="1.91" stroke-dasharray="15.75 15.75"/><line x1="235.07" y1="395.48" x2="232.89" y2="402.81" fill="none" stroke="#fff" stroke-linecap="round" stroke-miterlimit="10" stroke-width="1.91"/><line x1="363.55" y1="42.42" x2="361.37" y2="49.75" fill="none" stroke="#fff" stroke-linecap="round" stroke-miterlimit="10" stroke-width="1.91"/><line x1="356.88" y1="64.84" x2="260.29" y2="389.37" fill="none" stroke="#fff" stroke-linecap="round" stroke-miterlimit="10" stroke-width="1.91" stroke-dasharray="15.75 15.75"/><line x1="258.05" y1="396.91" x2="255.86" y2="404.24" fill="none" stroke="#fff" stroke-linecap="round" stroke-miterlimit="10" stroke-width="1.91"/><line x1="386.52" y1="43.85" x2="384.34" y2="51.18" fill="none" stroke="#fff" stroke-linecap="round" stroke-miterlimit="10" stroke-width="1.91"/><line x1="379.85" y1="66.28" x2="283.26" y2="390.8" fill="none" stroke="#fff" stroke-linecap="round" stroke-miterlimit="10" stroke-width="1.91" stroke-dasharray="15.75 15.75"/><line x1="281.02" y1="398.35" x2="278.84" y2="405.68" fill="none" stroke="#fff" stroke-linecap="round" stroke-miterlimit="10" stroke-width="1.91"/><line x1="396.75" y1="50.31" x2="394.57" y2="57.64" fill="none" stroke="#fff" stroke-linecap="round" stroke-miterlimit="10" stroke-width="1.91"/><line x1="390.08" y1="72.74" x2="293.49" y2="397.26" fill="none" stroke="#fff" stroke-linecap="round" stroke-miterlimit="10" stroke-width="1.91" stroke-dasharray="15.75 15.75"/><line x1="291.25" y1="404.81" x2="289.07" y2="412.14" fill="none" stroke="#fff" stroke-linecap="round" stroke-miterlimit="10" stroke-width="1.91"/><line x1="409.5" y1="45.29" x2="407.31" y2="52.62" fill="none" stroke="#fff" stroke-linecap="round" stroke-miterlimit="10" stroke-width="1.91"/><line x1="402.82" y1="67.71" x2="306.24" y2="392.24" fill="none" stroke="#fff" stroke-linecap="round" stroke-miterlimit="10" stroke-width="1.91" stroke-dasharray="15.75 15.75"/><line x1="303.99" y1="399.79" x2="301.81" y2="407.12" fill="none" stroke="#fff" stroke-linecap="round" stroke-miterlimit="10" stroke-width="1.91"/><line x1="418.65" y1="51.21" x2="416.47" y2="58.54" fill="none" stroke="#fff" stroke-linecap="round" stroke-miterlimit="10" stroke-width="1.91"/><line x1="411.98" y1="73.64" x2="315.39" y2="398.16" fill="none" stroke="#fff" stroke-linecap="round" stroke-miterlimit="10" stroke-width="1.91" stroke-dasharray="15.75 15.75"/><line x1="313.15" y1="405.71" x2="310.96" y2="413.04" fill="none" stroke="#fff" stroke-linecap="round" stroke-miterlimit="10" stroke-width="1.91"/><line x1="432.47" y1="46.72" x2="430.29" y2="54.05" fill="none" stroke="#fff" stroke-linecap="round" stroke-miterlimit="10" stroke-width="1.91"/><line x1="425.8" y1="69.15" x2="329.21" y2="393.67" fill="none" stroke="#fff" stroke-linecap="round" stroke-miterlimit="10" stroke-width="1.91" stroke-dasharray="15.75 15.75"/><line x1="326.96" y1="401.22" x2="324.78" y2="408.55" fill="none" stroke="#fff" stroke-linecap="round" stroke-miterlimit="10" stroke-width="1.91"/><line x1="455.44" y1="48.16" x2="453.26" y2="55.49" fill="none" stroke="#fff" stroke-linecap="round" stroke-miterlimit="10" stroke-width="1.91"/><line x1="448.77" y1="70.58" x2="352.18" y2="395.11" fill="none" stroke="#fff" stroke-linecap="round" stroke-miterlimit="10" stroke-width="1.91" stroke-dasharray="15.75 15.75"/><line x1="349.94" y1="402.66" x2="347.76" y2="409.99" fill="none" stroke="#fff" stroke-linecap="round" stroke-miterlimit="10" stroke-width="1.91"/><line x1="478.42" y1="49.59" x2="476.23" y2="56.93" fill="none" stroke="#fff" stroke-linecap="round" stroke-miterlimit="10" stroke-width="1.91"/><line x1="471.74" y1="72.02" x2="375.16" y2="396.55" fill="none" stroke="#fff" stroke-linecap="round" stroke-miterlimit="10" stroke-width="1.91" stroke-dasharray="15.75 15.75"/><line x1="372.91" y1="404.09" x2="370.73" y2="411.42" fill="none" stroke="#fff" stroke-linecap="round" stroke-miterlimit="10" stroke-width="1.91"/><line x1="501.39" y1="51.03" x2="499.21" y2="58.36" fill="none" stroke="#fff" stroke-linecap="round" stroke-miterlimit="10" stroke-width="1.91"/><line x1="494.72" y1="73.46" x2="398.13" y2="397.98" fill="none" stroke="#fff" stroke-linecap="round" stroke-miterlimit="10" stroke-width="1.91" stroke-dasharray="15.75 15.75"/><line x1="395.88" y1="405.53" x2="393.7" y2="412.86" fill="none" stroke="#fff" stroke-linecap="round" stroke-miterlimit="10" stroke-width="1.91"/><line x1="524.36" y1="52.47" x2="522.18" y2="59.8" fill="none" stroke="#fff" stroke-linecap="round" stroke-miterlimit="10" stroke-width="1.91"/><line x1="517.69" y1="74.89" x2="421.1" y2="399.42" fill="none" stroke="#fff" stroke-linecap="round" stroke-miterlimit="10" stroke-width="1.91" stroke-dasharray="15.75 15.75"/><line x1="418.86" y1="406.96" x2="416.68" y2="414.3" fill="none" stroke="#fff" stroke-linecap="round" stroke-miterlimit="10" stroke-width="1.91"/><line x1="547.34" y1="53.9" x2="545.15" y2="61.23" fill="none" stroke="#fff" stroke-linecap="round" stroke-miterlimit="10" stroke-width="1.91"/><line x1="540.66" y1="76.33" x2="444.08" y2="400.85" fill="none" stroke="#fff" stroke-linecap="round" stroke-miterlimit="10" stroke-width="1.91" stroke-dasharray="15.75 15.75"/><line x1="441.83" y1="408.4" x2="439.65" y2="415.73" fill="none" stroke="#fff" stroke-linecap="round" stroke-miterlimit="10" stroke-width="1.91"/><line x1="130.59" y1="0.96" x2="128.4" y2="8.29" fill="none" stroke="#fff" stroke-linecap="round" stroke-miterlimit="10" stroke-width="1.91"/><line x1="123.91" y1="23.38" x2="27.33" y2="347.91" fill="none" stroke="#fff" stroke-linecap="round" stroke-miterlimit="10" stroke-width="1.91" stroke-dasharray="15.75 15.75"/><line x1="25.08" y1="355.45" x2="22.9" y2="362.79" fill="none" stroke="#fff" stroke-linecap="round" stroke-miterlimit="10" stroke-width="1.91"/></g></svg>