<svg id="Layer_1" data-name="Layer 1" xmlns="http://www.w3.org/2000/svg" xmlns:xlink="http://www.w3.org/1999/xlink" viewBox="0 0 560.81 420.75"><defs><linearGradient id="linear-gradient" x1="276.12" y1="355.19" x2="363.75" y2="713.03" gradientUnits="userSpaceOnUse"><stop offset="0" stop-color="#010101" stop-opacity="0"/><stop offset="0.95" stop-color="#010101"/></linearGradient><linearGradient id="linear-gradient-2" x1="285.83" y1="394.28" x2="288.61" y2="206.49" xlink:href="#linear-gradient"/><linearGradient id="linear-gradient-3" x1="248.87" y1="317.87" x2="144.02" y2="473.31" xlink:href="#linear-gradient"/><linearGradient id="linear-gradient-4" x1="330.4" y1="319.55" x2="335.1" y2="353.98" xlink:href="#linear-gradient"/><linearGradient id="linear-gradient-5" x1="240.89" y1="251.78" x2="254" y2="251.78" gradientUnits="userSpaceOnUse"><stop offset="0" stop-color="#e4c5d5"/><stop offset="0.42" stop-color="#e9d3cf"/><stop offset="1" stop-color="#efe8ca"/></linearGradient><linearGradient id="linear-gradient-6" x1="303.89" y1="333.61" x2="304.44" y2="333.61" xlink:href="#linear-gradient-5"/><linearGradient id="linear-gradient-7" x1="275.02" y1="292.28" x2="382.57" y2="292.28" xlink:href="#linear-gradient-5"/><linearGradient id="linear-gradient-8" x1="323.85" y1="241.19" x2="338.26" y2="201.52" xlink:href="#linear-gradient"/><linearGradient id="linear-gradient-9" x1="163.8" y1="517.79" x2="175.96" y2="517.79" gradientTransform="translate(-57.13 -93.93) rotate(-19.24)" xlink:href="#linear-gradient-5"/><linearGradient id="linear-gradient-10" x1="234.81" y1="304.39" x2="204.55" y2="186.15" xlink:href="#linear-gradient"/><linearGradient id="linear-gradient-11" x1="216.67" y1="277.28" x2="220.15" y2="248.42" xlink:href="#linear-gradient"/><linearGradient id="linear-gradient-12" x1="210.31" y1="250.21" x2="223.08" y2="250.21" xlink:href="#linear-gradient-5"/><linearGradient id="linear-gradient-13" x1="313.63" y1="222.58" x2="334.15" y2="222.58" xlink:href="#linear-gradient-5"/><linearGradient id="linear-gradient-14" x1="310.24" y1="218.44" x2="336.31" y2="218.44" xlink:href="#linear-gradient"/><linearGradient id="linear-gradient-15" x1="225.37" y1="249.76" x2="238.07" y2="275.65" gradientTransform="matrix(1, -0.04, 0.04, 1, -4.38, -13.79)" xlink:href="#linear-gradient"/><linearGradient id="linear-gradient-16" x1="238.94" y1="226.2" x2="246.89" y2="253.45" xlink:href="#linear-gradient"/><linearGradient id="linear-gradient-17" x1="89.73" y1="339.58" x2="26.44" y2="551.01" xlink:href="#linear-gradient"/><linearGradient id="linear-gradient-18" x1="292.13" y1="304.83" x2="446.88" y2="348.99" xlink:href="#linear-gradient"/><linearGradient id="linear-gradient-19" x1="365.98" y1="291.04" x2="253.31" y2="325.12" xlink:href="#linear-gradient"/><linearGradient id="linear-gradient-20" x1="59.17" y1="298.08" x2="254.74" y2="324.38" xlink:href="#linear-gradient"/><linearGradient id="linear-gradient-21" x1="118.53" y1="172.73" x2="280.41" y2="194.5" gradientTransform="translate(15.38 104.88) rotate(16.38)" xlink:href="#linear-gradient"/><linearGradient id="linear-gradient-22" x1="-956.83" y1="337.23" x2="-1020.12" y2="548.66" gradientTransform="matrix(-1, 0, 0, 1, -511.89, 0)" xlink:href="#linear-gradient"/><linearGradient id="linear-gradient-23" x1="-929.47" y1="422.76" x2="-733.91" y2="449.06" gradientTransform="matrix(-0.98, 0.18, 0.18, 0.98, -526.94, 49.6)" xlink:href="#linear-gradient"/><linearGradient id="linear-gradient-24" x1="-660.38" y1="684.73" x2="-498.51" y2="706.5" gradientTransform="matrix(-0.76, 0.65, 0.65, 0.76, -505.41, 215.15)" xlink:href="#linear-gradient"/><linearGradient id="linear-gradient-25" x1="243.01" y1="358.7" x2="345.88" y2="1099.86" xlink:href="#linear-gradient"/></defs><title>love 1</title><path d="M531.28,298a231.28,231.28,0,0,1-34.65,45.09,234.67,234.67,0,0,1-71.58,49.87c-16.27,7.23-33.46,12.68-48.69,21.9-23.53,14.27-40.5,38.43-64.88,51.1-26.64,13.86-57-10.38-81.85-20.49-34.83-14.19-74.14-15.56-107.93-32.09-29.16-14.27-52.1-38.91-70.85-65.44-.15-.18-.26-.37-.41-.55-23.71-33.65-42.12-72.11-46-113.09s8.38-84.7,38.31-112.93c14.31-13.53,31.87-23,49.36-31.94C117.4,76.51,144.3,64.1,172.61,65.1c18.3.63,35,6.85,52,11.86,12.75,3.78,25.68,6.85,39.69,6.44,30.12-.85,56.84-20.75,85.48-28.27,18.12-4.78,37-6.07,55.76-5.7,35.46.7,71.55,7.63,101.9,26C586.56,123.35,572.52,227.8,531.28,298Z" transform="translate(-3.76 -49.37)" fill="#b0e0e6" opacity="0.24" style="isolation:isolate"/><path d="M496.63,343.07a234.67,234.67,0,0,1-71.58,49.87c-16.27,7.23-33.46,12.68-48.69,21.9-23.53,14.27-40.5,38.43-64.88,51.1-26.64,13.86-57-10.38-81.85-20.49-34.83-14.19-74.14-15.56-107.93-32.09-29.16-14.27-52.1-38.91-70.85-65.44H90.9c9.5,0,19.91,1.45,29.25.07,6.15-.9,20.39-2.07,24.32-7.55,1.14-1.59,2.43-3.94,4.3-3.34,1,.32,1.52,1.42,2.32,2.12,1.46,1.28,3.8,1,5.42-.05a13.57,13.57,0,0,0,3.7-4.45c1.87,1,3,3,4.22,4.74s2.72,3.56,4.81,4,4.64-1.36,4.14-3.43c9.82,12.3,24.53,8.16,39,7.91l61.84-1.05,59.81-1,32-.55c8-.14,20.57,2.22,26.93-3.77a33,33,0,0,0,5.52-7.64,4.31,4.31,0,0,0,8.53.23c.74,1.28,1.88,2.74,3.32,2.43a3.44,3.44,0,0,0,1.32-.73l5-3.81c-.28,3.42,2.24,6.57,5.3,8.11s6.59,1.81,10,2.05c15,1.07,29.38,1.5,44.46,1.25C479.34,343.37,494.48,345.26,496.63,343.07Z" transform="translate(-3.76 -49.37)" fill="#b0e0e6"/><path d="M496.63,343.07a234.67,234.67,0,0,1-71.58,49.87c-1.41.63-2.82,1.23-4.26,1.82-15,6.37-30.53,11.67-44.43,20.08-23.53,14.27-40.5,38.43-64.88,51.1-26.64,13.86-57-10.38-81.85-20.49-34.83-14.19-74.14-15.56-107.93-32.09-18.86-9.23-35.17-22.82-49.32-38.46a273.7,273.7,0,0,1-21.53-27H90.91c9.48,0,19.89,1.45,29.23.08,6.15-.93,20.38-2.08,24.34-7.56,1.12-1.59,2.41-3.93,4.3-3.34,1,.34,1.52,1.41,2.3,2.12,1.48,1.29,3.82,1,5.45,0a13.79,13.79,0,0,0,3.66-4.45c1.89,1,3,3,4.23,4.71s2.74,3.59,4.82,4,4.63-1.37,4.15-3.44c9.81,12.3,24.52,8.18,38.94,7.92q30.9-.5,61.84-1,29.9-.56,59.8-1l32-.56c8-.11,20.57,2.23,26.94-3.74a33.12,33.12,0,0,0,5.52-7.67,4.43,4.43,0,0,0,4.15,3.82,4.48,4.48,0,0,0,4.37-3.6c.74,1.3,1.89,2.78,3.34,2.45a3.34,3.34,0,0,0,1.3-.74c1.66-1.26,3.37-2.52,5-3.78-.25,3.41,2.26,6.56,5.3,8.08s6.6,1.81,10,2.07c15,1,29.38,1.48,44.46,1.22C479.33,343.37,494.49,345.26,496.63,343.07Z" transform="translate(-3.76 -49.37)" fill="url(#linear-gradient)"/><path d="M176.46,355.3c-2.41.49-5.44,1.71-5.31,4.17a4.3,4.3,0,0,0,2.29,3.14c3.89,2.48,8.82,2.45,13.44,2.33q36-.93,72-2.19c2.9-.1,6-.25,8.41-1.8a13.26,13.26,0,0,1,2.8-1.72,7.42,7.42,0,0,1,2.86-.17l12.6.91c-.52,2.13,1,4.34,2.9,5.38a14.69,14.69,0,0,0,6.38,1.28,538.94,538.94,0,0,0,81.74-2.43c8.69-.92,17.67-2.17,25-6.88-2.91-5.41-10.21-6.18-16.35-6.29-56.42-1-113-3.22-169.4-2.95C202.81,348.15,189.22,352.73,176.46,355.3Z" transform="translate(-3.76 -49.37)" fill="url(#linear-gradient-2)"/><path d="M257,311.82c2.76,3.29,3.5,7.78,4.14,12l1.52,10c1,6.46,1.5,14.2-3.55,18.34-3.21,2.63-7.69,2.87-11.84,3l-22.79.67c-3.36.1-6.78.19-10-.74s-6.28-3.08-7.44-6.23c-1.43-3.85.21-8.07,1.07-12.08,1.1-5.17,1-10.9,4.24-15.08,2.13-2.75,5.38-4.36,8.57-5.74C229.2,312.41,249.31,302.59,257,311.82Z" transform="translate(-3.76 -49.37)" fill="#fff"/><path d="M257,311.82c2.76,3.29,3.5,7.78,4.14,12l1.52,10c1,6.46,1.5,14.2-3.55,18.34-3.21,2.63-7.69,2.87-11.84,3l-22.79.67c-3.36.1-6.78.19-10-.74s-6.28-3.08-7.44-6.23c-1.43-3.85.21-8.07,1.07-12.08,1.1-5.17,1-10.9,4.24-15.08,2.13-2.75,5.38-4.36,8.57-5.74C229.2,312.41,249.31,302.59,257,311.82Z" transform="translate(-3.76 -49.37)" fill="url(#linear-gradient-3)"/><path d="M365.57,314.14c4.5-1.53,10-2.68,13.92-.63a6.48,6.48,0,0,1,3.48,6.61c-.29,2.51-1.76,4.9-3.36,7.17a85.88,85.88,0,0,1-20,20c-4.69,3.4-10,6.57-16.34,7.69a56.44,56.44,0,0,1-12.26.35c-6.43-.29-12.87-.58-19.25-1.16-3.81-.35-7.72-.84-10.88-2.38a22.5,22.5,0,0,1-6.23-4.93c-8.46-8.69-16.09-18.38-17.19-29.27-.36-3.54.4-7.71,4.45-9.78,4.91-2.5,11.32-.4,16.06,1.95a131.73,131.73,0,0,1,14,8c4.48,2.95,8.95,6.24,14.82,7.34C341.69,327.89,353,318.41,365.57,314.14Z" transform="translate(-3.76 -49.37)" fill="#606161"/><path d="M365.57,314.14c4.5-1.53,10-2.68,13.92-.63a6.48,6.48,0,0,1,3.48,6.61c-.29,2.51-1.76,4.9-3.36,7.17a85.88,85.88,0,0,1-20,20c-4.69,3.4-10,6.57-16.34,7.69a56.44,56.44,0,0,1-12.26.35c-6.43-.29-12.87-.58-19.25-1.16-3.81-.35-7.72-.84-10.88-2.38a22.5,22.5,0,0,1-6.23-4.93c-8.46-8.69-16.09-18.38-17.19-29.27-.36-3.54.4-7.71,4.45-9.78,4.91-2.5,11.32-.4,16.06,1.95a131.73,131.73,0,0,1,14,8c4.48,2.95,8.95,6.24,14.82,7.34C341.69,327.89,353,318.41,365.57,314.14Z" transform="translate(-3.76 -49.37)" fill="url(#linear-gradient-4)"/><path d="M253.91,249.73a5.6,5.6,0,0,1-.83,1.18c-1.09,1.5-.67,3.62-1.34,5.35-.93,2.41-3.66,3.5-6.11,4.34a2.26,2.26,0,0,1-1.14.17,1.8,1.8,0,0,1-.93-.58,8.24,8.24,0,0,1-1.72-3.46,18.31,18.31,0,0,1-.89-6.88,8.64,8.64,0,0,1,3.08-6,4.82,4.82,0,0,1,2.45-1,6,6,0,0,1,5.07,2.14C252.31,246,254.46,248.29,253.91,249.73Z" transform="translate(-3.76 -49.37)" fill="url(#linear-gradient-5)"/><path d="M304.44,333.18c0,.11,0,.26,0,.37C303.74,338.22,303.7,329.51,304.44,333.18Z" transform="translate(-3.76 -49.37)" fill="url(#linear-gradient-6)"/><path d="M372.74,352.89a10.1,10.1,0,0,1-3.8-1.18c-.46-.27-1-.59-1.5-.32s-.46.88-.57,1.39a2.88,2.88,0,0,1-3.2,2.13.44.44,0,0,1-.25-.11.48.48,0,0,1-.06-.29,21.79,21.79,0,0,0-.16-3.7c-.2-1.34-.39-2.68-.6-4-.4-2.63-.82-5.25-1.28-7.86-1.73-9.81-4.08-19.59-8.19-28.7-1.19,7.23.07,14.6,0,21.94s-.67.74-6.3,5.41c-5.41,4.44-13.05,4.85-20,4.52-4.56-.23-9.08-.67-13.6-1.3-2.52-.37-5.19-.93-6.89-2.82a8.65,8.65,0,0,1-1.82-4.33,2.89,2.89,0,0,0-.11-.48,100.7,100.7,0,0,0,.22-25.9c.29,2.36-2.38,5.75-3.72,7.46-1.93,2.48-4.21,4.65-6.36,6.94-4.74,5-7.89,10.85-7.9,18,0,1.79.24,3.58.1,5.37a7,7,0,0,1-2.09,4.8,26.65,26.65,0,0,1-1.2-3.23c-2.23,1.78-1.91,5.39-3.76,7.57a2.12,2.12,0,0,1-1.23.8c-1,.18-1.89-.8-2.36-1.74-1.52-3.06-1.35-6.73-.34-10a39.43,39.43,0,0,1,3.1-6.93c1-1.86,1-3.59,1.49-5.63,1.13-5,2.42-9.86,3.79-14.75,2.75-9.76,5.83-19.42,8.6-29.17,2.25-7.88,4.23-15.81,5.81-23.85a39.09,39.09,0,0,1,1.74-6.15,12.86,12.86,0,0,1,1.85-3.45c1.89-2.37,5-3.41,7.82-4.45,2-.74,4.08-1.55,6.08-2.48a12.86,12.86,0,0,0,4.74-3.07,7.76,7.76,0,0,0,1-1.45,10.56,10.56,0,0,0,1.08-3.37,26.34,26.34,0,0,0,.11-4.78v-.48c2.44-.59,5.22-3.74,7.7-3.63a3.28,3.28,0,0,1,1.26.41c.56.33.63,3.66.75,4.29.44,2.23,0,4.63.77,6.82a9.69,9.69,0,0,0,2.56,3.82c2.59,2.59,5.93,4.3,9.23,5.89a22.37,22.37,0,0,1,4.55,2.67,14.32,14.32,0,0,1,4.38,7.67,42.32,42.32,0,0,1,.77,8.93c.37,18.89,7.49,37.46,11.12,56l.15.74a90.43,90.43,0,0,0,3.8,14.59c.38,1,.75,2.11,1.22,3.07a5.78,5.78,0,0,0,2.25,1.86,38.88,38.88,0,0,0,6.4,3.33,7.29,7.29,0,0,1,2.13,1.14,1.21,1.21,0,0,1,.49,1.34,1.44,1.44,0,0,1-1.19.61,36.7,36.7,0,0,1-4.2.24A30.39,30.39,0,0,1,372.74,352.89Z" transform="translate(-3.76 -49.37)" fill="url(#linear-gradient-7)"/><path d="M330.56,232.65s-3.29,9.16-8.74,9.19h0a10.56,10.56,0,0,0,1.08-3.37,26.34,26.34,0,0,0,.11-4.78Z" transform="translate(-3.76 -49.37)" fill="url(#linear-gradient-8)"/><path d="M329.6,242.78a17.85,17.85,0,0,1,4.64-.51c3.17.3,5.62,2.75,8.25,4.54,2.42,1.64,5.15,2.78,7.49,4.53,7.21,5.41,9.22,15.35,9.33,24.36s7.71,46.91,5.81,51.17a12.91,12.91,0,0,1-3.23,4,65.17,65.17,0,0,1-5.12,4.25c-.37-.61-2.49-12.11-2.85-12.72a163.48,163.48,0,0,1-.67,21.11,7.23,7.23,0,0,1-1.1,3.8,6.29,6.29,0,0,1-3.49,2c-7.7,2.12-15.77-.72-23.71-1.5-7.76-.76-16.15.35-22.89-3.58a3,3,0,0,1-1.38-1.31,3.42,3.42,0,0,1,0-1.93c.68-3.83,1.55-27.26,2.23-31.09.44,1.15-8.71,21.71-9.95,21.84a6.24,6.24,0,0,1-3.49-1.08l-7.58-4.18a3.67,3.67,0,0,1-1.5-1.22c-.55-1-.13-2.16.26-3.19,7.58-19.93,10.19-42.6,17.45-62.65a26.69,26.69,0,0,1,5.71-9.82,27,27,0,0,1,12.15-6.69C320.35,241.83,325,243.57,329.6,242.78Z" transform="translate(-3.76 -49.37)" fill="#b0e0e6"/><path d="M275.27,345.93c.28.59.56,1.19.86,1.77.91,1.79,1.89,3.65,3.56,4.76a1.49,1.49,0,0,0,.87.31c.68,0,1.06-.77,1.29-1.41a10.54,10.54,0,0,0,1-4.91c-.33-2.64-2.58-4.69-3.2-7.28a3.25,3.25,0,0,0-.45-1.3,3.36,3.36,0,0,0-1.05-.73c-1.91-1.12-3-3.83-4.26-5.57a30.19,30.19,0,0,0-5.11-5.54,2.54,2.54,0,0,0-2.27-.69,2.76,2.76,0,0,0-1.66,1.68c-1.72,4,1.45,6.2,3.7,9,1.47,1.86,3.14,3.66,4.46,5.62A33.82,33.82,0,0,1,275.27,345.93Z" transform="translate(-3.76 -49.37)" fill="url(#linear-gradient-9)"/><path d="M254.34,271.84l8.6,21.59c4,10,8,20.27,7.62,31a7.25,7.25,0,0,1-.39,2.41c-1,2.5-4,3.35-6.66,3.86-7-12.8-14.16-25.94-16.35-40.37l-1.7,21.25a12.74,12.74,0,0,0,0,3,12.58,12.58,0,0,0,1.2,3.39A108.05,108.05,0,0,0,252,328.43c2,3.24,4.27,6.28,5.75,9.76s2.07,7.58.47,11a12.35,12.35,0,0,1-7,6,28.45,28.45,0,0,1-9.27,1.45,111.42,111.42,0,0,1-16-.87c-3.38-.39-12.36,0-13.86-3.1-1-2.05-.57-4.51.08-6.7,1.6-5.4,4.19-13,6.26-18.25s.6-9.94-.79-15.39c-1.88-7.43-4.76-13.37-4-21-4.05,2.43-4,4.73-8.33,6.7-2.69,1.23-6.28,2.21-8.25,0-1.53-1.7-1.13-4.32-.63-6.54l2.31-10.39c1.82-8.16,3.68-16.44,7.75-23.75a2.74,2.74,0,0,1,1.14-1.28,2.67,2.67,0,0,1,1.56-.05,32.83,32.83,0,0,1,5.35,1.38,59.15,59.15,0,0,0-3.82,17.82c7.3-1.9,10.43-11.41,17.64-13.64,5.3-1.64,9.93,1.57,15,2.31C249.15,264.74,252.07,266.15,254.34,271.84Z" transform="translate(-3.76 -49.37)" fill="#fff"/><path d="M239.63,279.79a79.91,79.91,0,0,1-7.08,9.84c-3.38,3.81-7.66,7.25-8.92,12.18-.66,2.59-.54,5.66-2.52,7.46a1.77,1.77,0,0,1-1,.53c-.93.05-1.48-1-1.8-1.84a143.68,143.68,0,0,1-5.77-20.34,4.26,4.26,0,0,1-.11-1.7,4.31,4.31,0,0,1,1-1.71A74.09,74.09,0,0,1,234,267.08c3.07-1.71,7-3.36,9.32.49S241.68,276.61,239.63,279.79Z" transform="translate(-3.76 -49.37)" fill="url(#linear-gradient-10)"/><path d="M225.63,244.42a28.62,28.62,0,0,1-12.55,15.39c-5.48,3.2-11.94,4.52-17.15,8.13A23.5,23.5,0,0,0,186.07,288c3.06-1.44,6.32-2.81,9.69-2.58,2.78.19,5.37,1.44,8,2.37a35.25,35.25,0,0,0,14,1.93c7.38-.5,14.91-3.66,19.1-9.75,2.08-3,3.25-6.61,5.22-9.71,3.1-4.87.84-7.05,4.41-11.57a12.52,12.52,0,0,0,2.6-4.94c.59-2.7-.26-5.52-1.46-8-2.12-4.43,1.65-9.7-2.88-11.62-4-1.7-9.08-1.19-13.09.49S226.9,240.69,225.63,244.42Z" transform="translate(-3.76 -49.37)" fill="#606161"/><path d="M225.63,244.42a28.62,28.62,0,0,1-12.55,15.39c-5.48,3.2-11.94,4.52-17.15,8.13A23.5,23.5,0,0,0,186.07,288c3.06-1.44,6.32-2.81,9.69-2.58,2.78.19,5.37,1.44,8,2.37a35.25,35.25,0,0,0,14,1.93c7.38-.5,14.91-3.66,19.1-9.75,2.08-3,3.25-6.61,5.22-9.71,3.1-4.87.84-7.05,4.41-11.57a12.52,12.52,0,0,0,2.6-4.94c.59-2.7-.26-5.52-1.46-8-2.12-4.43,1.65-9.7-2.88-11.62-4-1.7-9.08-1.19-13.09.49S226.9,240.69,225.63,244.42Z" transform="translate(-3.76 -49.37)" fill="url(#linear-gradient-11)"/><ellipse cx="235.79" cy="238.85" rx="28.43" ry="10.95" transform="translate(-47.71 4.04) rotate(-11.83)" fill="#b0e0e6"/><path d="M214.68,246.67a12.5,12.5,0,0,1,5.5-4.51c.91-.38,2.17-.55,2.7.28s0,1.62-.36,2.35L220,249.33a.58.58,0,0,0-.11.45c.08.28.47.28.73.41.59.28.46,1.23-.06,1.64a5.16,5.16,0,0,1-1.84.64c-1.91.56-3.21,2.29-4.32,3.94-1.43,2.12-4.91,3.65-3.89-.25A34.3,34.3,0,0,1,214.68,246.67Z" transform="translate(-3.76 -49.37)" fill="url(#linear-gradient-12)"/><path d="M243.9,221.56a15.66,15.66,0,0,0-7.11-2.41c-2.93-.37-6-.33-8.64,1a11.73,11.73,0,0,0-5.36,6.58,24.24,24.24,0,0,0-1.09,8.56,4.14,4.14,0,0,0,.48,2.18c.69,1.05,2.12,1.27,3.37,1.4,4.76.46,9.65.91,14.26-.35,3.57-1,7.32-3.31,9-6.74C250.57,228.18,246.94,223.7,243.9,221.56Z" transform="translate(-3.76 -49.37)" fill="#b0e0e6"/><path d="M313.77,226.87a2.22,2.22,0,0,0-.12,1c.16.73,1,1.07,1.53,1.57,1.52,1.34,1.24,3.9,2.56,5.43s4,1.44,6.14,1.1a14.72,14.72,0,0,0,4.58-1.27,9.53,9.53,0,0,0,3.37-3.19c3.84-5.73,2.69-13.94-1.77-19.2a9.58,9.58,0,0,0-4.51-3.23c-3.37-.95-7,1.16-8.89,4.12C313.92,217.59,315,222.28,313.77,226.87Z" transform="translate(-3.76 -49.37)" fill="url(#linear-gradient-13)"/><path d="M314.05,217.85c1.78.33,3.56-.37,5.31-.79a2.12,2.12,0,0,1,1.55,0,2.33,2.33,0,0,1,.79,1l2.87,5.91a1.63,1.63,0,0,1,1.24-2.08,2.36,2.36,0,0,1,2.34,1.13,3.09,3.09,0,0,1,.31,2.6c-.31.91-1.07,1.7-1.09,2.66a2.6,2.6,0,0,0,.5,1.47,4.57,4.57,0,0,0,8.18-1.16,9.15,9.15,0,0,0,.24-3L336,214.85c-.07-2.3-.22-4.82-1.77-6.52a9.81,9.81,0,0,0-4.65-2.35,23.3,23.3,0,0,0-3.78-.88c-4.67-.56-10.2,1.82-13.9,4.6C308.85,212,310.29,217.17,314.05,217.85Z" transform="translate(-3.76 -49.37)" fill="#606161"/><path d="M314.05,217.85c1.78.33,3.56-.37,5.31-.79a2.12,2.12,0,0,1,1.55,0,2.33,2.33,0,0,1,.79,1l2.87,5.91a1.63,1.63,0,0,1,1.24-2.08,2.36,2.36,0,0,1,2.34,1.13,3.09,3.09,0,0,1,.31,2.6c-.31.91-1.07,1.7-1.09,2.66a2.6,2.6,0,0,0,.5,1.47,4.57,4.57,0,0,0,8.18-1.16,9.15,9.15,0,0,0,.24-3L336,214.85c-.07-2.3-.22-4.82-1.77-6.52a9.81,9.81,0,0,0-4.65-2.35,23.3,23.3,0,0,0-3.78-.88c-4.67-.56-10.2,1.82-13.9,4.6C308.85,212,310.29,217.17,314.05,217.85Z" transform="translate(-3.76 -49.37)" fill="url(#linear-gradient-14)"/><path d="M238.31,229.37c-4.8,1.77-10.06,1.8-15.17,1.5a1.83,1.83,0,0,0-1.09.14,1.77,1.77,0,0,0-.64.83c-1,2.22-.77,5.38,1.39,6.45a6,6,0,0,0,2.52.44,54,54,0,0,0,16-2c2.37-.67,4.84-1.61,6.3-3.62,1.18-1.63,2.07-6.81-.5-7.85-1.16-.48-2.78,1.1-3.72,1.65A31.14,31.14,0,0,1,238.31,229.37Z" transform="translate(-3.76 -49.37)" fill="url(#linear-gradient-15)"/><path d="M242.73,233.45a19.82,19.82,0,0,0-5.21-2.84,1.08,1.08,0,0,0-.68-.09,1,1,0,0,0-.47.35,5.89,5.89,0,0,0-1.11,5.84c.34.93,1.11,1.86,2.09,1.81a3,3,0,0,0,1.32-.54l1.8-1.1a1.73,1.73,0,0,1,.6-.28,2.08,2.08,0,0,1,1.12.19,6.8,6.8,0,0,0,2.56.47,3.25,3.25,0,0,0,2.32-1c1-1.19.72-3,.24-4.49a12.92,12.92,0,0,0-1.12-2.62.92.92,0,0,0-.29-.33.9.9,0,0,0-.54-.06,5.05,5.05,0,0,0-2.54,1.53,24.29,24.29,0,0,0-2.26,2.5" transform="translate(-3.76 -49.37)" fill="url(#linear-gradient-16)"/><path d="M103.1,364.24l4.37,4.48a5.58,5.58,0,0,1,2,3.35c.1,2.25-2.43,3.67-4.66,4-5.8.82-11.49-2.09-16.17-5.61s-8.9-7.78-14.15-10.37c-3.11-1.53-6.5-2.43-9.65-3.87s-6.18-3.59-7.62-6.74c3.06-4,14-1.79,18.38-1.81a109.77,109.77,0,0,0,14.59-1.25c4-.54,16.34-3.84,15.78,3.19C105.44,355.85,96.66,357.79,103.1,364.24Z" transform="translate(-3.76 -49.37)" fill="url(#linear-gradient-17)"/><path d="M309.86,271c2.82,24.29,4.84,49,.65,73.09a2.85,2.85,0,0,1-3,3,8.16,8.16,0,0,1-4.63-.33c-2.68-1.32-3.06-4.91-3.08-7.9a145.93,145.93,0,0,1,.58-17.74c.59-5.14,2.63-9.34,3.92-14.27A179.53,179.53,0,0,0,309.86,271Z" transform="translate(-3.76 -49.37)" fill="url(#linear-gradient-18)"/><path d="M349.84,256.15c3.1,1.78,5,5.12,6,8.58a47.36,47.36,0,0,1,1.07,10.65,199.72,199.72,0,0,0,6.71,45,10.46,10.46,0,0,1,.51,5.26c-1,3.83-5.78,5.15-8.27,8.22-.6-5.56-2.26-10.78-2-16.4.3-7,.87-13.87.95-20.84a166.37,166.37,0,0,0-.89-20.7c-.39-3.48-.92-6.94-1.62-10.37C351.93,264,351.17,256.91,349.84,256.15Z" transform="translate(-3.76 -49.37)" fill="url(#linear-gradient-19)"/><path d="M79.23,350.78a6.32,6.32,0,0,1-2.4.81,5.54,5.54,0,0,1-1.15,0c-9-.48-15.9-21.79-16.94-28.27-3-18.31,4.64-38.43-3.81-54.95-3-6-8-10.86-11.45-16.64-8.34-13.86-6.93-32.86,3.33-45.35-1.37,12.26,6.82,23.38,14.9,32.75S78.64,258.7,79.09,271c.44,12.08-7.45,24.12-4,35.68,1.41,4.67,4.52,8.6,6.6,13C84.38,325.4,87.16,346.18,79.23,350.78Z" transform="translate(-3.76 -49.37)" fill="#b0e0e6"/><path d="M79.23,350.78a6.32,6.32,0,0,1-2.4.81,5.54,5.54,0,0,1-1.15,0,34.43,34.43,0,0,1-3.15-12.38c-.6-7.07,0-14.37-2-21.19-.89-3.08-2.3-6-3.3-9a38.9,38.9,0,0,1-1.81-16.52c.52-4.86,2-9.56,2.48-14.38a39.81,39.81,0,0,0-11.52-31.83c8.85,8.19,15,19.27,14.56,31.28-.26,7.7-3.41,15.3-2.41,23,.67,5,3,9.48,4.37,14.3,3,10.71.85,22.57,5,32.9C78.34,348.85,78.79,349.85,79.23,350.78Z" transform="translate(-3.76 -49.37)" fill="url(#linear-gradient-20)"/><path d="M84,350.56a5.26,5.26,0,0,1-2.1.08,4.24,4.24,0,0,1-.93-.24c-7-2.47-7.53-21-6.84-26.4,1.91-15.23,12.64-29.43,9.79-44.53-1-5.48-3.79-10.48-5.21-15.88A33.48,33.48,0,0,1,92,228.35c-4,9.42,0,20.16,4.18,29.49s8.89,19.46,6.36,29.36c-2.46,9.7-11.54,17.42-11.47,27.41,0,4,1.58,7.88,2.2,11.87C94,331.6,91.4,348.76,84,350.56Z" transform="translate(-3.76 -49.37)" fill="#b0e0e6"/><path d="M84,350.56a5.26,5.26,0,0,1-2.1.08,4.24,4.24,0,0,1-.93-.24,28.7,28.7,0,0,1,.39-10.56c1.18-5.76,3.33-11.42,3.33-17.31,0-2.65-.43-5.27-.53-7.89a32.36,32.36,0,0,1,2.42-13.54c1.54-3.74,3.79-7.14,5.33-10.84a32.93,32.93,0,0,0-1.73-28c5.13,8.57,7.42,18.81,4.27,28.24-2,6.06-6.28,11.35-7.28,17.68-.62,4.1.2,8.24.14,12.38-.12,9.2-4.59,18.12-3.68,27.3C83.77,348.82,83.89,349.72,84,350.56Z" transform="translate(-3.76 -49.37)" fill="url(#linear-gradient-21)"/><path d="M431.57,361.89l-4.37,4.48c-.92.95-1.91,2-2,3.36-.1,2.24,2.43,3.66,4.66,4,5.8.82,11.49-2.09,16.17-5.61s8.89-7.78,14.15-10.37c3.11-1.53,6.49-2.42,9.65-3.87s6.18-3.58,7.62-6.74c-3.07-4-14-1.78-18.38-1.8a113.53,113.53,0,0,1-14.6-1.25c-4-.54-16.33-3.85-15.77,3.18C429.23,353.5,438,355.44,431.57,361.89Z" transform="translate(-3.76 -49.37)" fill="url(#linear-gradient-22)"/><path d="M454.31,350a6.45,6.45,0,0,0,2.51.36,5.42,5.42,0,0,0,1.14-.18c8.73-2.12,11.63-24.33,11.45-30.9-.44-18.53-11.6-36.92-6.33-54.71,1.88-6.46,5.83-12.14,8.2-18.46,5.65-15.15.77-33.58-11.61-44,3.6,11.81-2.41,24.24-8.63,34.94s-13.06,22.3-11.23,34.51c1.78,12,11.75,22.34,10.45,34.35-.53,4.85-2.86,9.28-4.09,14C444.58,326,445.67,346.93,454.31,350Z" transform="translate(-3.76 -49.37)" fill="#b0e0e6"/><path d="M454.31,350a6.45,6.45,0,0,0,2.51.36,5.42,5.42,0,0,0,1.14-.18,34.26,34.26,0,0,0,.82-12.74c-.71-7.06-2.6-14.14-1.88-21.21.31-3.18,1.16-6.28,1.59-9.42a39,39,0,0,0-1.25-16.57c-1.4-4.68-3.68-9-5.08-13.68a39.78,39.78,0,0,1,5.48-33.4c-7.2,9.67-11.21,21.69-8.57,33.41,1.67,7.53,6.16,14.42,6.59,22.14.25,5-1.25,9.88-1.67,14.86-1,11.08,3.3,22.34,1.08,33.27C454.83,347.93,454.57,349,454.31,350Z" transform="translate(-3.76 -49.37)" fill="url(#linear-gradient-23)"/><path d="M457.18,350.72a5.23,5.23,0,0,0,1.95-.78,4.67,4.67,0,0,0,.74-.59c5.39-5.13-1.71-22.26-4.54-26.9-8-13.11-23.58-21.69-27.14-36.63-1.32-5.41-.83-11.12-1.74-16.63A33.51,33.51,0,0,0,400,242.44c7.46,7,8.28,18.38,8.24,28.63s-.16,21.39,6.2,29.39c6.21,7.84,17.65,11.18,21.68,20.33,1.62,3.69,1.77,7.84,2.84,11.73C440.29,337.52,449.72,352.1,457.18,350.72Z" transform="translate(-3.76 -49.37)" fill="#b0e0e6"/><path d="M457.18,350.72a5.23,5.23,0,0,0,1.95-.78,4.67,4.67,0,0,0,.74-.59,28.36,28.36,0,0,0-4.67-9.48c-3.43-4.78-7.71-9.07-10.11-14.44-1.1-2.41-1.76-5-2.75-7.41a32.3,32.3,0,0,0-7.74-11.38c-2.94-2.78-6.38-5-9.29-7.71a33,33,0,0,1-9.87-26.23c-1.17,9.92.92,20.19,7.66,27.51,4.3,4.71,10.37,7.8,13.86,13.16,2.25,3.49,3.19,7.61,4.94,11.35,3.87,8.36,11.6,14.66,14.52,23.42C456.7,349,457,349.9,457.18,350.72Z" transform="translate(-3.76 -49.37)" fill="url(#linear-gradient-24)"/><path d="M420.79,394.76c-15,6.37-30.53,11.67-44.43,20.08-23.53,14.27-40.5,38.43-64.88,51.1-26.64,13.86-57-10.38-81.85-20.49-34.83-14.19-74.14-15.56-107.93-32.09-18.86-9.23-35.17-22.82-49.32-38.46,20.49-.22,38.83,12.23,57.32,21.3,37.39,18.38,80.15,24.16,121.68,21.05,17.38-1.3,34.76-4.11,52.13-2.59,6.93.59,13.9,1.85,20.83,1,13.6-1.59,24.79-10.78,36.79-17.34,16.19-8.89,35.39-13.15,53.43-9.19,2.52.56,5.38,1.63,6.08,4.12A4.15,4.15,0,0,1,420.79,394.76Z" transform="translate(-3.76 -49.37)" fill="url(#linear-gradient-25)"/></svg>