<svg id="Layer_1" data-name="Layer 1" xmlns="http://www.w3.org/2000/svg" xmlns:xlink="http://www.w3.org/1999/xlink" viewBox="0 0 562.03 441.11"><defs><linearGradient id="linear-gradient" x1="260.59" y1="347.96" x2="284.09" y2="347.96" gradientUnits="userSpaceOnUse"><stop offset="0" stop-color="#fff" stop-opacity="0"/><stop offset="0.07" stop-color="#fff" stop-opacity="0.22"/><stop offset="0.16" stop-color="#fff" stop-opacity="0.45"/><stop offset="0.25" stop-color="#fff" stop-opacity="0.65"/><stop offset="0.33" stop-color="#fff" stop-opacity="0.8"/><stop offset="0.4" stop-color="#fff" stop-opacity="0.91"/><stop offset="0.46" stop-color="#fff" stop-opacity="0.98"/><stop offset="0.51" stop-color="#fff"/></linearGradient><linearGradient id="linear-gradient-2" x1="268.86" y1="335.71" x2="284.57" y2="335.71" gradientUnits="userSpaceOnUse"><stop offset="0" stop-color="#e4c5d5"/><stop offset="0.42" stop-color="#e9d3cf"/><stop offset="1" stop-color="#efe8ca"/></linearGradient><linearGradient id="linear-gradient-3" x1="292.87" y1="315.76" x2="313.03" y2="268.96" gradientUnits="userSpaceOnUse"><stop offset="0" stop-color="#010101" stop-opacity="0"/><stop offset="0.95" stop-color="#010101"/></linearGradient><linearGradient id="linear-gradient-4" x1="283.43" y1="307.61" x2="268.34" y2="983.77" xlink:href="#linear-gradient-3"/><linearGradient id="linear-gradient-5" x1="180.96" y1="344.94" x2="192.01" y2="314.39" xlink:href="#linear-gradient-3"/><linearGradient id="linear-gradient-6" x1="171.14" y1="341.49" x2="225.09" y2="336.29" xlink:href="#linear-gradient-3"/><linearGradient id="linear-gradient-7" x1="162.31" y1="299.95" x2="293.96" y2="484.74" xlink:href="#linear-gradient-3"/><linearGradient id="linear-gradient-8" x1="347.28" y1="356.04" x2="345.81" y2="332.64" xlink:href="#linear-gradient-3"/><linearGradient id="linear-gradient-9" x1="322.89" y1="304.5" x2="454.54" y2="489.29" xlink:href="#linear-gradient-3"/><linearGradient id="linear-gradient-10" x1="243.78" y1="287.99" x2="280.83" y2="307.5" xlink:href="#linear-gradient-3"/><linearGradient id="linear-gradient-11" x1="242.94" y1="339.14" x2="228.8" y2="355.23" xlink:href="#linear-gradient-3"/><linearGradient id="linear-gradient-12" x1="258.33" y1="202.86" x2="307.42" y2="246.09" xlink:href="#linear-gradient-3"/><linearGradient id="linear-gradient-13" x1="215.94" y1="228.59" x2="236.3" y2="228.59" xlink:href="#linear-gradient-2"/><linearGradient id="linear-gradient-14" x1="332.99" y1="337.07" x2="465.62" y2="513.57" xlink:href="#linear-gradient-3"/><linearGradient id="linear-gradient-15" x1="280.52" y1="329.39" x2="649.62" y2="315.74" xlink:href="#linear-gradient-3"/><linearGradient id="linear-gradient-16" x1="315.83" y1="297.39" x2="320.11" y2="259.91" xlink:href="#linear-gradient-3"/><linearGradient id="linear-gradient-17" x1="352.33" y1="212.34" x2="317.47" y2="155.54" xlink:href="#linear-gradient-3"/><linearGradient id="linear-gradient-18" x1="318.94" y1="220.3" x2="585.65" y2="378.61" xlink:href="#linear-gradient-3"/><linearGradient id="linear-gradient-19" x1="341.38" y1="220.23" x2="217.78" y2="273.87" xlink:href="#linear-gradient-3"/><linearGradient id="linear-gradient-20" x1="307.29" y1="187.48" x2="360.76" y2="153.19" xlink:href="#linear-gradient-3"/><linearGradient id="linear-gradient-21" x1="313.79" y1="207.7" x2="212.05" y2="369.9" xlink:href="#linear-gradient-3"/><linearGradient id="linear-gradient-22" x1="299.23" y1="160" x2="282.24" y2="163.56" xlink:href="#linear-gradient-2"/><linearGradient id="linear-gradient-23" x1="298.79" y1="162.76" x2="202.73" y2="318.83" xlink:href="#linear-gradient-3"/><linearGradient id="linear-gradient-24" x1="293.44" y1="147.31" x2="324.97" y2="166.33" xlink:href="#linear-gradient-3"/><linearGradient id="linear-gradient-25" x1="324.26" y1="187.08" x2="335.53" y2="187.08" xlink:href="#linear-gradient-2"/><linearGradient id="linear-gradient-26" x1="332.27" y1="194.3" x2="319.45" y2="163.42" xlink:href="#linear-gradient-3"/><linearGradient id="linear-gradient-27" x1="309.08" y1="178.67" x2="331.35" y2="178.67" xlink:href="#linear-gradient-2"/><linearGradient id="linear-gradient-28" x1="270.55" y1="352.67" x2="296.59" y2="352.67" xlink:href="#linear-gradient"/><linearGradient id="linear-gradient-29" x1="279.71" y1="339.09" x2="297.12" y2="339.09" xlink:href="#linear-gradient-2"/><linearGradient id="linear-gradient-30" x1="325.89" y1="280.16" x2="318.58" y2="170.45" xlink:href="#linear-gradient-3"/><linearGradient id="linear-gradient-31" x1="191.1" y1="200.84" x2="203.85" y2="201.18" xlink:href="#linear-gradient"/><linearGradient id="linear-gradient-32" x1="217.09" y1="232.26" x2="202.71" y2="295.65" xlink:href="#linear-gradient-3"/><linearGradient id="linear-gradient-33" x1="223.39" y1="235.53" x2="248.03" y2="235.53" xlink:href="#linear-gradient-2"/><linearGradient id="linear-gradient-34" x1="177.34" y1="298.21" x2="536.85" y2="355.42" xlink:href="#linear-gradient-3"/><linearGradient id="linear-gradient-35" x1="368.48" y1="261.09" x2="331.91" y2="461" gradientUnits="userSpaceOnUse"><stop offset="0" stop-color="#fff" stop-opacity="0"/><stop offset="0.11" stop-color="#fff" stop-opacity="0.01"/><stop offset="0.18" stop-color="#fff" stop-opacity="0.04"/><stop offset="0.24" stop-color="#fff" stop-opacity="0.1"/><stop offset="0.29" stop-color="#fff" stop-opacity="0.18"/><stop offset="0.34" stop-color="#fff" stop-opacity="0.28"/><stop offset="0.38" stop-color="#fff" stop-opacity="0.41"/><stop offset="0.43" stop-color="#fff" stop-opacity="0.56"/><stop offset="0.46" stop-color="#fff" stop-opacity="0.74"/><stop offset="0.5" stop-color="#fff" stop-opacity="0.93"/><stop offset="0.51" stop-color="#fff"/></linearGradient><linearGradient id="linear-gradient-36" x1="355.64" y1="328.99" x2="355.93" y2="342.37" xlink:href="#linear-gradient-3"/><linearGradient id="linear-gradient-37" x1="355.7" y1="332.6" x2="355.99" y2="345.98" xlink:href="#linear-gradient-3"/><linearGradient id="linear-gradient-38" x1="353.16" y1="304.45" x2="353.45" y2="317.75" xlink:href="#linear-gradient-3"/><linearGradient id="linear-gradient-39" x1="287.53" y1="235.62" x2="294.4" y2="235.62" xlink:href="#linear-gradient-2"/><linearGradient id="linear-gradient-40" x1="298.29" y1="161.88" x2="306.07" y2="155.02" xlink:href="#linear-gradient-3"/></defs><title>love 2</title><path d="M559.2,385c-12,39.34-43.26,73.35-83.3,83.88C416.23,484.63,355.07,453,293.52,448.43c-39.48-2.94-78.83,5.34-118.34,8.14s-81.77-.76-113.78-24C44.64,420.31,32.1,403.65,22.86,385A208.83,208.83,0,0,1,6.68,338c-3-13.61-5.09-27.61-3.7-41.5,5.4-54.44,59.46-90.29,81.56-140.33C96,130.22,98.67,100.6,113.67,76.6c43.12-69.16,118.31-36.95,182.8-37S422.91,22.05,477.05,69c9.14,7.9,17.42,17.18,21.92,28.4,10.32,25.63-1,54.52.14,82.09,2.29,52.22,48.21,92.23,61.82,142.69C566.51,342.87,565.47,364.65,559.2,385Z" transform="translate(-2.53 -32.14)" fill="#b0e0e6" opacity="0.24" style="isolation:isolate"/><path d="M284,342.6a34.25,34.25,0,0,1-1.52,5.29,26,26,0,0,0-1.1,6.25,4.49,4.49,0,0,1-.38,2,1.38,1.38,0,0,1-1.68.7l.39-8a37.54,37.54,0,0,1-3.08,5.32,7.57,7.57,0,0,1-1.71,1.9,7.27,7.27,0,0,1-2.15,1,30.42,30.42,0,0,1-12.18,1.15c-.16-1.28.82-2.4,1.8-3.24,3.87-3.35,8.8-5.52,12-9.54,1.17-1.48,2.06-3.17,3.23-4.65.93-1.18,3-3.39,4.71-3.06S284.21,341.21,284,342.6Z" transform="translate(-2.53 -32.14)" opacity="0.65" fill="url(#linear-gradient)"/><path d="M277.57,321.93s-.16,17.73-8.71,29.08c0,0,3.89,2.18,6.38,0s7.15-9.95,7.15-9.95l1.24-10.89.94-10.73Z" transform="translate(-2.53 -32.14)" fill="url(#linear-gradient-2)"/><path d="M345.89,278.11a9.28,9.28,0,0,0-.65-9.08,16,16,0,0,0-7.32-5.88,65.1,65.1,0,0,0-9.09-2.83c-11.36-3.09-22.22-7.75-33.36-11.54-2.05-.7-4.24-1.37-6.34-.85a9.2,9.2,0,0,0-4.82,3.69c-2.87,3.86-4.28,8.61-5.19,13.33-2,10.38-1.86,21.05-1.7,31.62.14,9-1.45,17.79-1,26.8a15.63,15.63,0,0,1,3.67.79,3.9,3.9,0,0,0,3.57-.58,4.61,4.61,0,0,0,1-1.69c2.19-5.63,3.27-11.62,4.88-17.44,3.13-11.31,8.38-22.58,7-34.24l10,8c3.88,3.09,7.85,6.24,12.48,8.05a34.91,34.91,0,0,0,10.47,2.13,18.55,18.55,0,0,0,7.78-.74C341.24,286.13,343.87,281.88,345.89,278.11Z" transform="translate(-2.53 -32.14)" fill="#b0e0e6"/><path d="M345.89,278.11a9.28,9.28,0,0,0-.65-9.08,16,16,0,0,0-7.32-5.88,65.1,65.1,0,0,0-9.09-2.83c-11.36-3.09-22.22-7.75-33.36-11.54-2.05-.7-4.24-1.37-6.34-.85a9.2,9.2,0,0,0-4.82,3.69c-2.87,3.86-4.28,8.61-5.19,13.33-2,10.38-1.86,21.05-1.7,31.62.14,9-1.45,17.79-1,26.8a15.63,15.63,0,0,1,3.67.79,3.9,3.9,0,0,0,3.57-.58,4.61,4.61,0,0,0,1-1.69c2.19-5.63,3.27-11.62,4.88-17.44,3.13-11.31,8.38-22.58,7-34.24l10,8c3.88,3.09,7.85,6.24,12.48,8.05a34.91,34.91,0,0,0,10.47,2.13,18.55,18.55,0,0,0,7.78-.74C341.24,286.13,343.87,281.88,345.89,278.11Z" transform="translate(-2.53 -32.14)" fill="url(#linear-gradient-3)"/><path d="M559.2,385c-12,39.34-43.26,73.35-83.3,83.88C416.23,484.63,355.07,453,293.52,448.43c-39.48-2.94-78.83,5.34-118.34,8.14s-81.77-.76-113.78-24C44.64,420.31,32.1,403.65,22.86,385Z" transform="translate(-2.53 -32.14)" fill="#b0e0e6"/><path d="M143.44,385.89c-4.22.25-9.32,1.11-10.84,5.05,7.62,3.51,16.28,3.79,24.66,3.85,39.46.31,77.65,4,117.1,3.8,44.27-.26,89.75-3.77,134-4.54,7.57-.13,15.39-.45,22.2-3.76q-25.21-2.69-50.56-3.7c-64.21-2.58-128.62,3.3-192.76-1.51C172.54,384,158.17,385,143.44,385.89Z" transform="translate(-2.53 -32.14)" fill="url(#linear-gradient-4)"/><path d="M368.21,360a55.53,55.53,0,0,1,17.72-15.14c7.18-3.87,17-5.74,22.82-.07,1.39-7.55,4.33-15.17,10.17-20.16s15.06-6.54,21.23-2a7.83,7.83,0,0,0,3.05,1.78c2.31.42,4.16-1.76,5.59-3.61,5.34-6.93,12.78-12.91,21.49-13.7,14.64-1.33,27,13.15,28.34,27.79.32,3.61.18,7.36,1.5,10.74,1.49,3.78,4.67,6.69,6.29,10.42,3.1,7.14-.52,15.94-6.82,20.51s-14.58,5.59-22.33,4.85-15.26-3-22.91-4.51a9.78,9.78,0,0,0-5.15,0,10.67,10.67,0,0,0-4,3.32c-4.22,4.72-9.07,9.06-14.93,11.46-14.14,5.78-30.07-.9-45.35-.65-6.79.11-13.65,1.61-20.33.36-6.35-1.19-15-6.91-11.4-13.78,1.37-2.61,6-5.28,8-7.74C363.7,366.78,365.75,363.25,368.21,360Z" transform="translate(-2.53 -32.14)" fill="#fff"/><circle cx="185.52" cy="332.35" r="27.05" fill="#606161"/><circle cx="185.52" cy="332.35" r="27.05" fill="url(#linear-gradient-5)"/><path d="M164.1,340.54l44.8,10.34s-4.82-27.91-16.19-30.33S157.9,316.76,164.1,340.54Z" transform="translate(-2.53 -32.14)" fill="#b0e0e6"/><path d="M163.62,344.77l44.79,10.33s-4.82-27.91-16.19-30.32S157.41,321,163.62,344.77Z" transform="translate(-2.53 -32.14)" fill="url(#linear-gradient-6)"/><circle cx="185.35" cy="333.26" r="16.94" fill="#fff"/><circle cx="185.89" cy="333.04" r="13.75" fill="url(#linear-gradient-7)"/><circle cx="346.1" cy="337.17" r="27.05" fill="#606161"/><circle cx="346.1" cy="337.17" r="27.05" fill="url(#linear-gradient-8)"/><circle cx="346.67" cy="337.55" r="16.94" fill="#fff"/><circle cx="346.47" cy="337.59" r="13.75" fill="url(#linear-gradient-9)"/><path d="M287.89,244.32s-42.27,18.83-45.49,35.37-17.46,62-17.46,62l11.49,14,25.27-73.28L294,242.82Z" transform="translate(-2.53 -32.14)" fill="#606161"/><path d="M287.89,244.32s-42.27,18.83-45.49,35.37-17.46,62-17.46,62l11.49,14,25.27-73.28L294,242.82Z" transform="translate(-2.53 -32.14)" fill="url(#linear-gradient-10)"/><path d="M228.71,346.12c-3.28-.17-6.53-.86-9.82-.82a8.22,8.22,0,0,0-4.84,1.26,3.73,3.73,0,0,0-1.41,4.45,5.06,5.06,0,0,0,1.53,1.66,29.21,29.21,0,0,0,15.33,6.09c2.38.21,4.78.13,7.16.41a24.1,24.1,0,0,1,8.73,2.8l3.72-11.88a2.63,2.63,0,0,0-1.31-3.92c-2.67-1.56-6.45-3.75-9.61-2.39C234.87,345.21,232.55,346.32,228.71,346.12Z" transform="translate(-2.53 -32.14)" fill="#b0e0e6"/><path d="M228.71,346.12c-3.28-.17-6.53-.86-9.82-.82a8.22,8.22,0,0,0-4.84,1.26,3.73,3.73,0,0,0-1.41,4.45,5.06,5.06,0,0,0,1.53,1.66,29.21,29.21,0,0,0,15.33,6.09c2.38.21,4.78.13,7.16.41a24.1,24.1,0,0,1,8.73,2.8l3.72-11.88a2.63,2.63,0,0,0-1.31-3.92c-2.67-1.56-6.45-3.75-9.61-2.39C234.87,345.21,232.55,346.32,228.71,346.12Z" transform="translate(-2.53 -32.14)" fill="url(#linear-gradient-11)"/><path d="M290.18,182.29S278.7,208,270,209.63s-34.23,8.73-35.84,11.71.46,9.42.46,9.42,16.31,3.68,30.78-2.53a108.81,108.81,0,0,0,25.73-16.08l3.22-26.41Z" transform="translate(-2.53 -32.14)" fill="#b0e0e6"/><path d="M290.18,182.29S278.7,208,270,209.63s-34.23,8.73-35.84,11.71.46,9.42.46,9.42,16.31,3.68,30.78-2.53a108.81,108.81,0,0,0,25.73-16.08l3.22-26.41Z" transform="translate(-2.53 -32.14)" fill="url(#linear-gradient-12)"/><path d="M226.55,222.07a15.43,15.43,0,0,0-4,0,10.44,10.44,0,0,0-3.05,1.11c-1.59.83-3.13,2.08-3.51,3.83a5.54,5.54,0,0,0,.35,3,7.69,7.69,0,0,0,5.69,5.09,2.38,2.38,0,0,0,2.54-.9,7.19,7.19,0,0,0,.33-1.23,3.57,3.57,0,0,1,2.85-2.24,20.92,20.92,0,0,1,3.8-.12,5.28,5.28,0,0,0,3.55-1.12,4.16,4.16,0,0,0,1.14-3.33c-.14-2-.65-3.47-2.66-3.64C231.27,222.39,228.91,222.24,226.55,222.07Z" transform="translate(-2.53 -32.14)" fill="url(#linear-gradient-13)"/><path d="M394.17,366.73c-50.12-1.21-100.44,10.77-150.11,3.81-19.53-2.73-39.82-9.11-52.54-24.21-6-7.17-9.94-17.42-7.1-26a15.76,15.76,0,0,1,1.84-3.95c2.08-3.26,5.2-5.71,7.83-8.52,7.1-7.62,10.67-17.91,12.36-28.19s1.84-20.75,3-31.07a6,6,0,0,1,1.07-3.29,3.12,3.12,0,0,1,1.11-.8,5.51,5.51,0,0,1,4.64.32c4,2,6.16,6.54,6.58,11s-.62,8.87-1.63,13.23c-3.74,16.11-6.86,32.77-4.33,49.12s11.78,32.52,26.84,39.34a57,57,0,0,0,27.4,3.84c8.59-1,16.9-4.22,21.44-11.29,3.84-5.95,4.29-13.43,4.15-20.5A167,167,0,0,0,295.43,312c-.63-4.92-1.73-10.29-5.58-13.48a19.7,19.7,0,0,0-5.47-2.87c-1-.42-2.11-.8-3.12-1.28-2.91-1.39-5.75-3.78-5.92-7-.14-3,2.22-5.68,5-6.83s5.89-1.1,8.9-1c25.77.49,58-1,76.82,20.09,5.54,6.24,9.32,13.82,12.64,21.44A273.81,273.81,0,0,1,394.17,366.73Z" transform="translate(-2.53 -32.14)" fill="#b0e0e6"/><path d="M345.4,293.38s39.45,25.19,37,59.2l-70.65,4.16L298.13,372.1l95.45-7.19s-15.24-66.8-40.11-74.36Z" transform="translate(-2.53 -32.14)" fill="url(#linear-gradient-14)"/><path d="M309.35,356.48c-7.55,3.43-38.79,7.45-38.79,7.45l.52-2.57c8.59-1,16.9-4.22,21.44-11.29,3.84-5.95,4.29-13.43,4.15-20.5A167,167,0,0,0,295.43,312c-.63-4.92-1.73-10.29-5.58-13.48a19.7,19.7,0,0,0-5.47-2.87l.1-.55s20.71,2.18,27.54,12.43S316.9,353.09,309.35,356.48Z" transform="translate(-2.53 -32.14)" fill="url(#linear-gradient-15)"/><path d="M282.35,274.48c-3.63.09-8,.76-9.4,4.13-1.11,2.79.71,6.05,3.3,7.58s5.7,1.75,8.7,1.95q30.27,2,60.45,5.24c3,.32,6,.65,8.91-.06s5.69-2.68,6.51-5.55a6.55,6.55,0,0,0-2.4-6.9c-2.66-1.92-4.45-.53-7.17-.3-2.88.23-6-.85-8.84-1.37-6.64-1.21-16.76-14.52-23.47-15.27C305.66,262.43,295.71,274.16,282.35,274.48Z" transform="translate(-2.53 -32.14)" fill="#606161"/><path d="M283,274.48c-3.63.09-8,.76-9.4,4.13-1.11,2.79.71,6.05,3.3,7.58s5.7,1.75,8.7,1.95q30.27,2,60.45,5.24c3,.32,6,.65,8.91-.06s5.69-2.68,6.51-5.55a6.55,6.55,0,0,0-2.4-6.9c-2.66-1.92-4.45-.53-7.17-.3-2.88.23-6-.85-8.84-1.37-6.64-1.21-9-12.56-15.67-13.31C314.06,264.39,296.32,274.16,283,274.48Z" transform="translate(-2.53 -32.14)" fill="url(#linear-gradient-16)"/><path d="M296.51,346.73a39.1,39.1,0,0,1-1.68,5.86,29.05,29.05,0,0,0-1.23,6.92,4.81,4.81,0,0,1-.41,2.17,1.53,1.53,0,0,1-1.87.78l.44-8.85a40.68,40.68,0,0,1-3.42,5.89,8.3,8.3,0,0,1-1.89,2.11,8.13,8.13,0,0,1-2.39,1.05,33.83,33.83,0,0,1-13.49,1.28c-.18-1.42.91-2.66,2-3.6,4.29-3.71,9.76-6.11,13.28-10.56,1.29-1.64,2.28-3.51,3.58-5.16,1-1.3,3.29-3.75,5.22-3.39S296.72,345.18,296.51,346.73Z" transform="translate(-2.53 -32.14)" fill="#b0e0e6"/><path d="M306.81,169.63c-1.86-3.59-.72-8.26,2.1-11.16s7-4.19,11-4.25a22.26,22.26,0,0,1,16.87,7.52c1.43,1.64,2.7,3.55,4.67,4.46,1.58.74,3.4.71,5.14.9,3.26.35,6.58,1.6,8.63,4.16s3,6.83,6.3,8c1.74.6,3.65.11,5.49.16,6.35.18,10.68,6.5,16.57,8.88,2.47,1,5.18,1.28,7.75,2s5.19,2,6.52,4.29c2,3.49.43,7.9-1.43,11.46-2,3.75-4.45,7.55-8.33,9.24a18.85,18.85,0,0,1-5.92,1.25,47.92,47.92,0,0,1-15.94-.93,26.58,26.58,0,0,1-13.63-8c-1.48-1.71-2.69-3.64-4.23-5.28a9.17,9.17,0,0,0-5.79-3.19c-3-.21-5.78,1.76-8.79,1.89-3.53.14-6.69-2.25-10.2-2.68-1.55-.19-3.15,0-4.65-.45-2.65-.8-4.33-3.46-5.07-6.13-1.35-4.79.11-9.59-.65-14.35C312.67,173.85,308.5,172.64,306.81,169.63Z" transform="translate(-2.53 -32.14)" fill="#606161"/><path d="M334.54,176.4c2.59,1.58,5.64,2.21,8.49,3.24s5.75,2.67,7,5.43c1,2.13.86,4.62,1.78,6.76a3.49,3.49,0,0,0,1.79,2,4.54,4.54,0,0,0,2.11.15c3.87-.29,8.09-.13,11.15,2.26,5,3.91,5.13,12.38,10.74,15.36.16.77-.84,1.2-1.62,1.32-6.37,1-13.33,1.15-18.78-2.31a31.8,31.8,0,0,1-5.41-4.71L345,199a10.35,10.35,0,0,0-2.49-2,8.57,8.57,0,0,0-4-.74,24.56,24.56,0,0,0-5.66.69c-1.5.36-3,.87-4.49,1.11a18.48,18.48,0,0,1-6-.19,12.07,12.07,0,0,1-5.47-2.12c-2.17-1.73-3.18-4.52-3.77-7.23a34.49,34.49,0,0,1-.74-8.17,5.9,5.9,0,0,1,.72-3.11,6.48,6.48,0,0,1,2.26-1.88c3.31-2,7.44-4.64,11.48-4.43C330,171,332,174.86,334.54,176.4Z" transform="translate(-2.53 -32.14)" fill="url(#linear-gradient-17)"/><path d="M348.73,203a69.41,69.41,0,0,1,4.08,10.17c2.58,7.52,5.2,15.44,3.86,23.29a13.59,13.59,0,0,1-2,5.43c-3.15,4.64-9.5,5.58-15.1,5.88a11.17,11.17,0,0,1-4.16-.3c-2.07-.69-3.57-2.47-4.82-4.26-7.28-10.43-9.8-23.45-10.64-36.14-.2-3.06-.28-6.26,1-9,2.09-4.46,8.32-11.85,13.92-10.56C340.69,188.79,346.16,198.12,348.73,203Z" transform="translate(-2.53 -32.14)" fill="#fff"/><path d="M363.05,262.81a9.56,9.56,0,0,1,.12,3.9c-.6,2.32-2.8,2.92-4.7,3.17a66.14,66.14,0,0,1-19.7-.33,4.6,4.6,0,0,1-3.3-1.77,8,8,0,0,1-.93-2.56,188.16,188.16,0,0,1-3.5-19,5.29,5.29,0,0,1,0-2.06,2.93,2.93,0,0,1,1.5-1.69A37,37,0,0,1,348.15,237c4.36-.49,7.35.36,9.5,5.86A104.5,104.5,0,0,1,363.05,262.81Z" transform="translate(-2.53 -32.14)" fill="#fff"/><path d="M346.92,210.91c1.84,3.11,3.76,6.51,3.37,10.1-.27,2.52-1.65,4.76-2.52,7.14-2.62,7.16-.56,15.08,1.41,22.45.44,1.62,2.25,6.07,1,7.16-1.05.89-4.15-1.79-5.36-2.43s-4.08,2.76-5.37,2.27c-5.57-2.14-7.88-2.33-8.24-10.44-.18-4,1-6.75,3-10,2.36-3.7,4.85-6.76,6.74-10.81C342,224.17,348.12,212.93,346.92,210.91Z" transform="translate(-2.53 -32.14)" fill="url(#linear-gradient-18)"/><path d="M330.88,208.41a2.29,2.29,0,0,1-1.5.87c-1,0-8.66-7.67-10.44-4-.25.49.88,1.26,1,1.79,3.79,14.18,8.33,28.22,12.11,42.4,2.68-2.2,3.75-5.85,3.94-9.31s-.37-6.93-.25-10.39c.18-5.07,1.77-10,2.51-15,.44-3,1.19-9.2-1-11.77C334.82,200.1,332.63,206.61,330.88,208.41Z" transform="translate(-2.53 -32.14)" fill="url(#linear-gradient-19)"/><path d="M292.52,177.47c-2.39,2.92-2.66,7-2.7,10.77-.15,14.49,1.45,28.93,3.3,43.3.86,6.73,1.87,13.7,5.58,19.38s10.92,9.66,17.35,7.49c4.74-1.61,8-6.15,9.59-10.9,2.7-7.92,1.74-16.65-.4-24.75s-5.4-15.87-7.31-24c-1.11-4.74-1.77-9.6-3.37-14.2-1.37-3.93-4.09-9.75-8.42-11C302,172.25,295.23,174.18,292.52,177.47Z" transform="translate(-2.53 -32.14)" fill="#b0e0e6"/><path d="M304.68,176.77c.21.64,1.07.76,1.54,1.24a3.11,3.11,0,0,1,.53,1.81,10,10,0,0,0,2.74,5.16,34.9,34.9,0,0,1,3.8,4.54c1.61,2.64,2,5.86,3.51,8.57.51-2.83-.76-5.64-1.41-8.44-.62-2.64-.69-5.39-1.34-8s-2.07-5.27-4.5-6.46c-1.06-.53-2.1-.93-3.12-1.53a4,4,0,0,0-2.13-.65c-.62,0-1,.13-.9.77.05.45.69.91.91,1.3C304.65,175.66,304.49,176.16,304.68,176.77Z" transform="translate(-2.53 -32.14)" fill="url(#linear-gradient-20)"/><path d="M295.85,216.18a135.35,135.35,0,0,0,3.81-21.51c2.73,1.84,3.27,5.58,3.4,8.86a100.29,100.29,0,0,1-.55,15.11c-.26,2.28-.56,4.75.58,6.74,1.52,2.68,5.18,3.46,8.14,2.63s5.4-2.89,7.78-4.84c.79-.65,1.75-1.34,2.75-1.1,1.38.32,1.77,2.12,1.62,3.53-.55,5.28-4.66,9.66-9.43,12s-10.18,2.93-15.46,3.42a4.37,4.37,0,0,1-2.73-.33c-1.07-.66-1.36-2.06-1.55-3.3l-1.58-10.23c-.14-.9-1.35-2.82-1.2-3.53.2-1,1.33-1.06,1.82-1.9A20.9,20.9,0,0,0,295.85,216.18Z" transform="translate(-2.53 -32.14)" fill="url(#linear-gradient-21)"/><path d="M305.61,154.29c-.55,5.85-1.73,11.67-1.28,17.49.14,1.45.34,3-.38,4.26-.83,1.42-2.57,2-4.19,2.35a39.57,39.57,0,0,1-7.55.94,1.55,1.55,0,0,1-.8-.14,1.69,1.69,0,0,1-.42-.73c-.17-.55-.34-1.11-.52-1.66-.27-.76-.52-1.56-.76-2.36a1.55,1.55,0,0,0-.55-.9,1.07,1.07,0,0,0-.42-.1,1.89,1.89,0,0,0-.41,0c-1.28,0-2.53,0-3.81,0a4.51,4.51,0,0,1-1.94-.28,3.68,3.68,0,0,1-1.8-2.94,11.14,11.14,0,0,0-.9-3.5c-.7-1.14-2.05-1.94-2.32-3.29s.52-2.42,1.17-3.53a16.91,16.91,0,0,0,2.15-5.89l1.11-4.19c1.11-2,3.19-3.33,5.16-4.54s4.16-2.49,6.48-2.46a10.58,10.58,0,0,1,4.57,1.29,17,17,0,0,1,5.68,4,7,7,0,0,1,1.69,3.09A9.1,9.1,0,0,1,305.61,154.29Z" transform="translate(-2.53 -32.14)" fill="url(#linear-gradient-22)"/><path d="M291.31,176.73c-.23,0-.45.21-.73.14,0,0-.07,0-.11-.07-.27-.76-.52-1.56-.76-2.36a1.55,1.55,0,0,0-.55-.9,1.07,1.07,0,0,0-.42-.1c2.57-.46,5.13-2.34,7.93-3.63C296.67,169.81,296.49,175.73,291.31,176.73Z" transform="translate(-2.53 -32.14)" fill="url(#linear-gradient-23)"/><path d="M277.81,146.88c1.37,2.71,4.65,4,7.69,3.87,1.37-.07,3-.33,3.92.68.57.6.77,1.57,1.52,1.92.95.44,2.29-.4,3.05.34a3.73,3.73,0,0,1,.54,1,2.15,2.15,0,0,0,2.52,1l.31,6.52a5.55,5.55,0,0,0,.65-2.93c.09-1,.52-2.18,1.5-2.41,3.47.36,2.16,5.63.05,7.52a6.71,6.71,0,0,1,1.66,2.27c.51.8,1.47,1.52,2.34,1.14s1-1.59,1.15-2.56a14.44,14.44,0,0,1,2.74-5.67,17.39,17.39,0,0,0,3-5.58c.5-2.06.05-4.51-1.67-5.75.92-1.09,1.89-2.37,1.66-3.77a5,5,0,0,0-1.69-2.53c-1.36-1.33-3.23-2.77-5-2a2.68,2.68,0,0,1-.93.34c-.75,0-1.17-.82-1.52-1.48a6.38,6.38,0,0,0-7.88-2.74,2.84,2.84,0,0,1-1.37.39,2.42,2.42,0,0,1-1-.37c-1.64-.93-3.61-1.7-5.36-.64-1.5.91-2.36,2.46-4,3.3C278.72,140.25,276,143.17,277.81,146.88Z" transform="translate(-2.53 -32.14)" fill="#606161"/><path d="M277.81,146.88c1.37,2.71,4.65,4,7.69,3.87,1.37-.07,3-.33,3.92.68.57.6.77,1.57,1.52,1.92.95.44,2.29-.4,3.05.34a3.73,3.73,0,0,1,.54,1,2.15,2.15,0,0,0,2.52,1l.31,6.52a5.55,5.55,0,0,0,.65-2.93c.09-1,.52-2.18,1.5-2.41,3.54.48,2.16,5.63.05,7.52a6.71,6.71,0,0,1,1.66,2.27c.51.8,1.47,1.52,2.34,1.14s1-1.59,1.15-2.56a14.44,14.44,0,0,1,2.74-5.67,17.39,17.39,0,0,0,3-5.58c.5-2.06.05-4.51-1.67-5.75.92-1.09,1.89-2.37,1.66-3.77a5,5,0,0,0-1.69-2.53c-1.36-1.33-3.23-2.77-5-2a2.68,2.68,0,0,1-.93.34c-.75,0-1.17-.82-1.52-1.48a6.38,6.38,0,0,0-7.88-2.74,2.84,2.84,0,0,1-1.37.39,2.42,2.42,0,0,1-1-.37c-1.64-.93-3.61-1.7-5.36-.64-1.5.91-2.36,2.46-4,3.3C278.72,140.25,276,143.17,277.81,146.88Z" transform="translate(-2.53 -32.14)" fill="url(#linear-gradient-24)"/><path d="M295.39,240.26s-36.52,23.78-43.07,35.5S235.43,344,235.43,344l13.44,9L270,285.41s45-17.58,48.93-21.48S326,246.14,326,246.14Z" transform="translate(-2.53 -32.14)" fill="#606161"/><path d="M333.94,196.33a4.33,4.33,0,0,1-6.06-.17,1.7,1.7,0,0,1-.21-.28,9.71,9.71,0,0,1-1-1.83,58,58,0,0,1-2.28-6.69c0-.17-.07-.34-.11-.52-.62-4.67,4.92-12.85,6.48-9.28C335.81,188.89,336.81,193.35,333.94,196.33Z" transform="translate(-2.53 -32.14)" fill="url(#linear-gradient-25)"/><path d="M332.45,184.73c.07,1.59,0,3.22,0,4.82a11.67,11.67,0,0,1-.66,3.77,4.28,4.28,0,0,1-2.67,2.63,2.09,2.09,0,0,1-1.31,0s-.07,0-.11,0a9.71,9.71,0,0,1-1-1.83,58,58,0,0,1-2.28-6.69c0-.17-.07-.34-.11-.52a19.23,19.23,0,0,1,1-1.83c.69-1.14,1.45-2.25,2.25-3.36.66-.87,1.52-2.43,2.53-2.91C332.21,177.77,332.38,183.55,332.45,184.73Z" transform="translate(-2.53 -32.14)" fill="url(#linear-gradient-26)"/><path d="M310,177.44a24.85,24.85,0,0,0,3.24,5.57,48.51,48.51,0,0,0,4.59,5.72c1.83,1.88,4.21,3.59,6.83,3.41a6.93,6.93,0,0,0,5.38-3.86,13.58,13.58,0,0,0,1.27-6.73,21.76,21.76,0,0,0-2.43-9.73,12.47,12.47,0,0,0-4.53-5,14.26,14.26,0,0,0-6.9-1.65,11.4,11.4,0,0,0-4.11.52C308.4,167.5,308.45,173.18,310,177.44Z" transform="translate(-2.53 -32.14)" fill="url(#linear-gradient-27)"/><path d="M296.51,346.73a39.1,39.1,0,0,1-1.68,5.86,29.05,29.05,0,0,0-1.23,6.92,4.81,4.81,0,0,1-.41,2.17,1.53,1.53,0,0,1-1.87.78l.44-8.85a40.68,40.68,0,0,1-3.42,5.89,8.3,8.3,0,0,1-1.89,2.11,8.13,8.13,0,0,1-2.39,1.05,33.83,33.83,0,0,1-13.49,1.28c-.18-1.42.91-2.66,2-3.6,4.29-3.71,9.76-6.11,13.28-10.56,1.29-1.64,2.28-3.51,3.58-5.16,1-1.3,3.29-3.75,5.22-3.39S296.72,345.18,296.51,346.73Z" transform="translate(-2.53 -32.14)" opacity="0.65" fill="url(#linear-gradient-28)"/><path d="M289.36,323.83s-.17,19.64-9.65,32.22c0,0,4.31,2.41,7.07,0s7.92-11,7.92-11L296.08,333l1-11.89Z" transform="translate(-2.53 -32.14)" fill="url(#linear-gradient-29)"/><path d="M365.06,275.28a10.29,10.29,0,0,0-.72-10.06,17.76,17.76,0,0,0-8.11-6.51,70.48,70.48,0,0,0-10.08-3.14c-12.58-3.42-24.61-8.59-37-12.79-2.26-.77-4.69-1.52-7-.94a10.17,10.17,0,0,0-5.34,4.09c-3.17,4.28-4.74,9.54-5.75,14.77-2.23,11.5-2.06,23.32-1.88,35,.15,10-1.61,19.71-1.08,29.69a17.44,17.44,0,0,1,4.06.88,4.32,4.32,0,0,0,3.95-.64,5.09,5.09,0,0,0,1.09-1.87c2.43-6.24,3.62-12.88,5.4-19.33,3.48-12.53,9.29-25,7.72-37.93l11.07,8.82c4.31,3.44,8.7,6.92,13.83,8.93a39.2,39.2,0,0,0,11.61,2.36,20.54,20.54,0,0,0,8.62-.82C359.91,284.17,362.82,279.46,365.06,275.28Z" transform="translate(-2.53 -32.14)" fill="#b0e0e6"/><path d="M365.06,275.28a10.29,10.29,0,0,0-.72-10.06,17.76,17.76,0,0,0-8.11-6.51,70.48,70.48,0,0,0-10.08-3.14c-12.58-3.42-24.61-8.59-37-12.79-2.26-.77-4.69-1.52-7-.94a10.17,10.17,0,0,0-5.34,4.09c-3.17,4.28-4.74,9.54-5.75,14.77-2.23,11.5-2.06,23.32-1.88,35,.15,10-1.61,19.71-1.08,29.69a17.44,17.44,0,0,1,4.06.88,4.32,4.32,0,0,0,3.95-.64,5.09,5.09,0,0,0,1.09-1.87c2.43-6.24,3.62-12.88,5.4-19.33,3.48-12.53,9.29-25,7.72-37.93l11.07,8.82c4.31,3.44,8.7,6.92,13.83,8.93a39.2,39.2,0,0,0,11.61,2.36,20.54,20.54,0,0,0,8.62-.82C359.91,284.17,362.82,279.46,365.06,275.28Z" transform="translate(-2.53 -32.14)" fill="url(#linear-gradient-30)"/><path d="M198.88,223.44s17.14,4.91,19.38,7.92,2,15,2,15l-6.11-.26s.08-3-2.67-3.79-13.53.52-13.53.52S196.3,224.13,198.88,223.44Z" transform="translate(-2.53 -32.14)" fill="#b0e0e6"/><ellipse cx="195.45" cy="200.96" rx="3.81" ry="9.72" fill="#b0e0e6"/><ellipse cx="195.45" cy="200.96" rx="3.81" ry="9.72" opacity="0.65" fill="url(#linear-gradient-31)"/><path d="M324.94,222.34a16.37,16.37,0,0,1-1.77,3.79c-2.31,3.33-6.72,4.49-10.76,4.51s-8.08-.86-12.11-.52-8.32,2.26-9.8,6a4.92,4.92,0,0,0,0,3.91,6.59,6.59,0,0,0,3.53,2.77c11.36,4.86,24.4,2.52,36.39-.47,3.1-.77,6.29-1.64,8.76-3.66a17.83,17.83,0,0,0,4.86-7.42c3.25-8.2,3.93-17.2,3.95-26,0-6.6-5.7-18-12.21-9C330.6,203.35,328,214.14,324.94,222.34Z" transform="translate(-2.53 -32.14)" fill="#fff"/><path d="M214.6,229.15a109,109,0,0,1,13.56.92c9.19,1.15,2.29,9,2.29,9s-7.32.86-10.21,7.32S207.25,234.44,214.6,229.15Z" transform="translate(-2.53 -32.14)" fill="#b0e0e6"/><path d="M201.79,233.1s11.5,4,15.4,4.67,10.57-3.58,14-2.93.65,3.26.65,3.26-6.17,1.62-9.1,4.38-3.9,7.8-3.9,7.8l-5.69-5.68s1-.85-1.67-2.3-13.48.52-13.48.52S202,240,201.79,233.1Z" transform="translate(-2.53 -32.14)" fill="url(#linear-gradient-32)"/><path d="M282.49,209.83a17.78,17.78,0,0,1-3.77,4.76c-2.14,1.73-4.82,2.45-7.41,3.12l-24.39,6.36a5.12,5.12,0,0,0-2.68,1.3c-1.05,1.17-1,3-.73,4.61.66,4.62,2.52,9.84,6.73,11.07,2.63.76,5.39-.3,7.93-1.34l28.73-11.78a35.55,35.55,0,0,0,7.68-3.89,35.09,35.09,0,0,0,5.45-5.25c5-5.64,10-11.78,12.07-19.25,2.18-7.78-2.16-23.63-12.38-17.92C291.15,186.41,287.4,201.65,282.49,209.83Z" transform="translate(-2.53 -32.14)" fill="#b0e0e6"/><path d="M236.41,227.63c-3-.34-6.12-.3-8.78,1.06s-4.7,4.34-4.15,7.28a9,9,0,0,0,2.85,4.61,10.76,10.76,0,0,0,4.5,2.86,3.54,3.54,0,0,0,2,.07,1.86,1.86,0,0,0,1.32-1.35,3.34,3.34,0,0,0-.22-1.49,15.79,15.79,0,0,1-.63-5.6,2.13,2.13,0,0,1,.23-.93,1.8,1.8,0,0,1,.9-.65,3.6,3.6,0,0,1,4.09.77c1,1.2.73,3,1.55,4.31a3.14,3.14,0,0,0,3.32,1.36,5.67,5.67,0,0,0,2.9-2.34,9.12,9.12,0,0,0,1.64-3c.5-1.89-.31-5.15-2.39-5.9-1.18-.42-3.06-.19-4.35-.37C239.57,228.09,238,227.81,236.41,227.63Z" transform="translate(-2.53 -32.14)" fill="url(#linear-gradient-33)"/><circle cx="234.01" cy="204.36" r="3.88" fill="#b0e0e6"/><path d="M236.93,365.76s-24.38,3.4-43.15-23.41a58.83,58.83,0,0,1-9.36-22,15.76,15.76,0,0,1,1.84-3.95c2.08-3.26,5.2-5.71,7.83-8.52,7.1-7.62,10.67-17.91,12.36-28.19s1.84-20.75,3-31.07a6,6,0,0,1,1.07-3.29,3.12,3.12,0,0,1,1.11-.8,16.38,16.38,0,0,1,2.56,1.56s3.78.21,2.81,8.25-14.13,48.76-6.1,69S236.93,365.76,236.93,365.76Z" transform="translate(-2.53 -32.14)" fill="url(#linear-gradient-34)"/><path d="M308.85,176.31a2.12,2.12,0,0,0,1.2.87,2.33,2.33,0,0,0,.87-.06,5.44,5.44,0,0,0,2.8-1.16,1.88,1.88,0,0,0,.11-2.71A3.28,3.28,0,0,0,317,174a9.83,9.83,0,0,0,3-1.45,3.75,3.75,0,0,0-.62-2c1.08,1.87,4,1.83,5.7.47a2.1,2.1,0,0,1,.7-.45,1.68,1.68,0,0,1,1,.12c.82.27,2,.39,2.27-.44a1.59,1.59,0,0,0,0-.75A12.65,12.65,0,0,0,327,164a9.18,9.18,0,0,0-3.77-2.62,17.06,17.06,0,0,0-8.82-1.14c-3.2.44-7.48,2.38-8.53,5.76S306.83,173.86,308.85,176.31Z" transform="translate(-2.53 -32.14)" fill="#606161"/><path d="M304.7,171.56a1.06,1.06,0,0,0-.72.07l-10.29,3.3a29.9,29.9,0,0,0-5,2,1.55,1.55,0,0,0-.75.65,1.69,1.69,0,0,0,0,1.15,31.69,31.69,0,0,0,2.82,6.94c6.22-1.3,11.3-5.63,16.09-9.82a.77.77,0,0,0,.29-.4C307.26,174.76,305.31,171.75,304.7,171.56Z" transform="translate(-2.53 -32.14)" fill="#b0e0e6"/><path d="M382.43,352.57c-3.29-2.63-5.72-6.2-8.45-9.42a44.55,44.55,0,0,0-7.21-6.86h.31a1.07,1.07,0,0,0,1-1,1,1,0,0,0-1-1h-3.25c-.8-.49-1.63-1-2.46-1.39h6a1.21,1.21,0,0,0,.76-1.25c-.1-1-.76-1.1-.76-1.1H355.48a25.11,25.11,0,0,0-18.11,1.42c-5.33,2.77-13.54,0-11.12-7.14,2-6,7.38-12.57,12.89-15.58a22,22,0,0,1,10-2.64c10.6-.27,20.51,6.51,26.08,15.52S382.53,342,382.43,352.57Z" transform="translate(-2.53 -32.14)" opacity="0.65" fill="url(#linear-gradient-35)"/><path d="M368.06,331.67a1,1,0,0,1-.76,1,.59.59,0,0,1-.28,0H344.34a1,1,0,0,1,0-2H367a.77.77,0,0,1,.28,0A1,1,0,0,1,368.06,331.67Z" transform="translate(-2.53 -32.14)" fill="url(#linear-gradient-36)"/><path d="M368.12,335.25a1.07,1.07,0,0,1-1,1H344.4a1,1,0,0,1-1-1,1,1,0,0,1,1-1h22.68A1,1,0,0,1,368.12,335.25Z" transform="translate(-2.53 -32.14)" fill="url(#linear-gradient-37)"/><rect x="340.86" y="306.08" width="24.71" height="2.03" rx="1.02" fill="url(#linear-gradient-38)"/><path d="M288.27,232.22a5.18,5.18,0,0,0-.72,3.25,7.48,7.48,0,0,0,1.62,4.11,2.63,2.63,0,0,0,.89.77,1.18,1.18,0,0,0,1.14,0c.45-.31.52-.93.63-1.48a9.2,9.2,0,0,1,1.44-3.21c1-1.54,1.88-2.82.12-4S289.53,230.32,288.27,232.22Z" transform="translate(-2.53 -32.14)" fill="url(#linear-gradient-39)"/><path d="M299.35,160.83c.07-.34-.14-.67-.21-1a1.36,1.36,0,0,1,.77-1.5.62.62,0,0,1,.35-.06c.2.05.31.25.39.43a3.62,3.62,0,0,1-1.65,4.63.44.44,0,0,1-.35.07.53.53,0,0,1-.22-.2,1.42,1.42,0,0,1,0-1.46C298.7,161.37,299.24,161.32,299.35,160.83Z" transform="translate(-2.53 -32.14)" fill="url(#linear-gradient-40)"/><path d="M332.14,251.32A63.22,63.22,0,0,0,318,248.13" transform="translate(-2.53 -32.14)" fill="none"/><path d="M328.6,111.18a5.37,5.37,0,0,0-4.39,3c-1.32,2.77.06,6.17,2.24,8.33s5.06,3.44,7.64,5.1l4.46-5.1c1.42-1.63,2.91-3.41,3.13-5.56a5.51,5.51,0,0,0-5.1-5.84c-1.5,0-2.51,1.59-3.59,1.61C331.61,112.75,330.36,111.06,328.6,111.18Z" transform="translate(-2.53 -32.14)" fill="#b0e0e6"/><path d="M351.51,94.51A3.85,3.85,0,0,0,350.06,98a4.59,4.59,0,0,0,2.08,3.15,7.85,7.85,0,0,0,3.66,1.19c3.52.33,7-.86,10.33-2-.9-1-.55-2.52-.39-3.84a11,11,0,0,0-1.08-6.24,5,5,0,0,0-1.74-2.1,5.17,5.17,0,0,0-4.21-.21,4.77,4.77,0,0,0-2.53,1.55,6,6,0,0,0-.81,1.83,17.11,17.11,0,0,0-.49,2.51A4.77,4.77,0,0,0,351.51,94.51Z" transform="translate(-2.53 -32.14)" fill="#b0e0e6"/><path d="M319.14,76.43a4.53,4.53,0,0,0-4,2.75c-.78,2,.2,4.36,1.68,5.94a10.4,10.4,0,0,0,6.46,3.19,20.54,20.54,0,0,0,4.07-.14,1,1,0,0,0,.5-.13,1,1,0,0,0,.3-.41,45.16,45.16,0,0,0,2.88-6.89,7.16,7.16,0,0,0,.48-3.5,4,4,0,0,0-4.54-3.1,3.8,3.8,0,0,0-2.07,1.2c-.46.51-.7,2.1-1.11,2.38C323,78.33,320.52,76.36,319.14,76.43Z" transform="translate(-2.53 -32.14)" fill="#b0e0e6"/><path d="M356.21,54.78c-.67-1.6-2.91-1.62-4.61-1.25a6.07,6.07,0,0,0-3.75,1.93,4.23,4.23,0,0,0,.51,5.07A8.43,8.43,0,0,0,353.17,63c1.79.37,3.64.45,5.43.86a30.52,30.52,0,0,0,3.7-7.67,6.15,6.15,0,0,0,.34-3.41,2.43,2.43,0,0,0-2.54-1.88,3.59,3.59,0,0,0-1.23.59c-1.3.84-2.72,1.87-2.91,3.4" transform="translate(-2.53 -32.14)" fill="#b0e0e6"/></svg>